<svg width="94" height="132" viewBox="0 0 94 132" fill="none" xmlns="http://www.w3.org/2000/svg">
<path d="M0.687988 25.6169L0.702632 26.7884C0.710702 27.4328 2.57744 48.7663 4.851 74.1961L8.98473 120.432L27.5638 125.634C37.7823 128.495 46.3538 130.85 46.6116 130.868C46.8693 130.886 55.554 128.555 65.911 125.687C82.5162 121.089 84.7579 120.397 84.8768 119.828C85.0424 119.035 93.1741 27.3013 93.1658 26.3198L93.1598 25.6169H46.9237H0.687988Z" fill="white"/>
<path d="M27.711 125.945L8.96664 120.706L8.72168 119.319C8.50394 118.087 0.375488 27.3002 0.375488 26.1007C0.375488 25.6665 5.12147 25.6172 46.9239 25.6172C91.0488 25.6172 93.4721 25.6457 93.4687 26.1639C93.454 28.4023 85.0404 120.391 84.8336 120.574C84.5723 120.806 48.2924 130.913 47.0801 131.092C46.7364 131.143 38.0203 128.827 27.711 125.945ZM58.7432 107.432C65.0434 105.695 70.289 104.183 70.4001 104.074C70.5112 103.964 71.2485 96.4942 72.0384 87.4735C72.8283 78.4528 73.5544 70.4747 73.6518 69.7445L73.829 68.4168H60.2202H46.6115V74.1963V79.9758H53.959H61.3064L61.1603 80.6787C61.0799 81.0653 60.7674 84.3875 60.4659 88.0615C60.1464 91.9544 59.7676 94.8915 59.558 95.1011C59.3602 95.2989 56.3663 96.2156 52.9049 97.1382L46.6115 98.8157V104.704C46.6115 108.722 46.7189 110.591 46.9499 110.591C47.136 110.591 52.443 109.17 58.7432 107.432ZM73.6499 61.1533C73.4434 59.6225 71.6039 39.0906 71.6039 38.3164C71.6039 37.8462 70.5224 37.801 59.2639 37.801H46.9239V43.8446V49.8882L52.4691 50.1019C55.5189 50.2195 58.7286 50.3984 59.6017 50.4995L61.1892 50.6833L61.5745 55.4107C61.7865 58.0107 62.039 60.6652 62.1357 61.3095L62.3116 62.4811H68.0703H73.829L73.6499 61.1533Z" fill="#EAEBEC"/>
<path d="M27.5639 125.634L8.98481 120.432L4.85107 74.1963C2.57751 48.7665 0.710725 27.4331 0.702656 26.7888L0.687988 25.6172H46.924H93.16L93.166 26.3201C93.1743 27.3016 85.0425 119.035 84.8768 119.828C84.7579 120.397 82.5163 121.09 65.9111 125.688C55.5541 128.555 46.8693 130.887 46.6116 130.869C46.3538 130.851 37.7824 128.495 27.5639 125.634ZM58.7574 107.653C65.1799 105.868 70.5258 104.259 70.6372 104.079C70.7486 103.899 71.5158 96.047 72.3421 86.6307C73.1685 77.2144 73.9123 69.2642 73.995 68.9635C74.137 68.4469 73.0442 68.4168 54.1931 68.4168H34.2408L35.0903 59.4351C35.5575 54.4952 35.951 50.4407 35.9648 50.425C35.9785 50.4094 38.9069 50.316 42.4722 50.2175C48.3183 50.0559 60.3741 50.5223 60.7775 50.9256C60.9281 51.0763 61.9194 60.8016 61.9194 62.1292C61.9194 62.7838 62.0078 62.7935 67.973 62.7935H74.0265L73.8838 61.4657C73.8054 60.7355 73.2926 55.0771 72.7443 48.8914L71.7474 37.6448L48.4015 37.5647C29.8285 37.501 25.0551 37.5649 25.053 37.8772C25.0514 38.093 24.9155 39.4646 24.7505 40.9251C24.3513 44.4592 21.3067 78.6065 21.3067 79.5495V80.2882H41.1719H61.0371L60.86 81.4597C60.7626 82.104 60.4538 85.3726 60.1738 88.7231C59.8938 92.0737 59.5745 94.9016 59.4643 95.0074C59.1733 95.2868 47.4869 98.4088 46.7581 98.4018C46.4198 98.3986 43.4016 97.6455 40.0511 96.7284L33.9592 95.0608L33.7358 92.4387C33.6129 90.9965 33.426 88.9379 33.3204 87.864L33.1284 85.9115H27.2176H21.3067L21.3198 87.083C21.3443 89.2739 22.765 104.031 22.9713 104.238C23.2099 104.476 45.9125 110.858 46.6116 110.883C46.8693 110.892 52.3349 109.439 58.7574 107.653Z" fill="#F0BE25"/>
<path d="M27.5639 125.634L8.98481 120.432L4.85107 74.1963C2.57751 48.7665 0.710725 27.4331 0.702656 26.7888L0.687988 25.6172H46.924H93.16L93.166 26.3201C93.1743 27.3016 85.0425 119.035 84.8768 119.828C84.7579 120.397 82.5163 121.09 65.9111 125.688C55.5541 128.555 46.8693 130.887 46.6116 130.869C46.3538 130.851 37.7824 128.495 27.5639 125.634ZM62.2114 118.675C70.3843 116.42 77.2246 114.417 77.4122 114.223C77.7042 113.922 84.7629 36.5622 84.7345 33.9741L84.725 33.115H65.8245H46.924V35.3018V37.4886H35.9898C27.4521 37.4886 25.055 37.5742 25.053 37.8791C25.0514 38.0939 24.9155 39.4646 24.7505 40.9251C24.3513 44.4592 21.3067 78.6065 21.3067 79.5495V80.2882H34.1154H46.924V89.3479C46.924 96.3906 46.837 98.4064 46.5335 98.4018C46.3187 98.3985 43.4016 97.6455 40.0511 96.7284L33.9592 95.0608L33.7358 92.4387C33.6129 90.9965 33.426 88.9379 33.3204 87.864L33.1284 85.9115H27.2176H21.3067L21.3198 87.083C21.3573 90.4339 22.8068 104.112 23.1468 104.322C23.3534 104.45 28.7878 106.011 35.2232 107.792L46.924 111.03V116.903C46.924 120.133 47.0202 122.775 47.1379 122.775C47.2555 122.775 54.0386 120.93 62.2114 118.675ZM35.0574 59.5191C35.5065 54.6253 35.9352 50.566 36.01 50.4983C36.0848 50.4306 38.571 50.3081 41.535 50.2261L46.924 50.077V59.2469V68.4168H40.5824H34.2408L35.0574 59.5191Z" fill="#E4A126"/>
<path d="M30.054 14.5268V11.559H34.2714H38.4889V5.7795V0H41.4568H44.4246V8.74735V17.4947H37.2393H30.054V14.5268ZM47.2362 15.1517V12.8086H51.1413C53.2891 12.8086 55.0464 12.7292 55.0464 12.6322C55.0464 12.5351 53.2891 10.5512 51.1413 8.22347L47.2362 3.99119V1.99559V0H55.3588H63.4813V2.33342V4.66685L59.6681 4.75457L55.855 4.84228L59.8243 9.11699L63.7937 13.3917V15.4432V17.4947H55.515H47.2362V15.1517Z" fill="#0E0E0F"/>
</svg>
