<svg width="131" height="104" viewBox="0 0 131 104" fill="none" xmlns="http://www.w3.org/2000/svg">
<path d="M14.6125 13.8061C14.367 6.75538 19.8604 0.253662 27.2858 0.253662H103.373C110.798 0.253662 116.292 6.75538 116.046 13.8061C115.81 20.579 116.117 29.3525 118.325 36.5062C120.54 43.682 124.275 48.2177 130.393 48.8005V55.409C124.275 55.9918 120.54 60.5275 118.325 67.7033C116.117 74.857 115.81 83.6305 116.046 90.4036C116.292 97.4541 110.798 103.956 103.373 103.956H27.2858C19.8604 103.956 14.367 97.4541 14.6127 90.4036C14.8484 83.6305 14.5421 74.857 12.3338 67.7033C10.119 60.5275 6.37451 55.9918 0.256592 55.409V48.8005C6.37426 48.2177 10.119 43.682 12.3338 36.5062C14.5421 29.3525 14.8484 20.579 14.6125 13.8061Z" fill="url(#paint0_linear_31_162)"/>
<g filter="url(#filter0_d_31_162)">
<path d="M68.1465 79.6715C80.1681 79.6715 87.4123 73.7854 87.4123 64.0768C87.4123 56.7381 82.2434 51.4251 74.5684 50.5841V50.2783C80.2072 49.361 84.6321 44.1245 84.6321 38.2765C84.6321 29.944 78.0536 24.5162 68.0291 24.5162H45.4739V79.6715H68.1465ZM54.2454 31.511H65.9146C72.2583 31.511 75.8607 34.3394 75.8607 39.4612C75.8607 44.9272 71.6709 47.9849 64.0742 47.9849H54.2454V31.511ZM54.2454 72.6769V54.5212H65.8361C74.1376 54.5212 78.4451 57.5789 78.4451 63.5417C78.4451 69.5044 74.2553 72.6769 66.3452 72.6769H54.2454Z" fill="url(#paint1_linear_31_162)"/>
<path d="M68.1465 79.6715C80.1681 79.6715 87.4123 73.7854 87.4123 64.0768C87.4123 56.7381 82.2434 51.4251 74.5684 50.5841V50.2783C80.2072 49.361 84.6321 44.1245 84.6321 38.2765C84.6321 29.944 78.0536 24.5162 68.0291 24.5162H45.4739V79.6715H68.1465ZM54.2454 31.511H65.9146C72.2583 31.511 75.8607 34.3394 75.8607 39.4612C75.8607 44.9272 71.6709 47.9849 64.0742 47.9849H54.2454V31.511ZM54.2454 72.6769V54.5212H65.8361C74.1376 54.5212 78.4451 57.5789 78.4451 63.5417C78.4451 69.5044 74.2553 72.6769 66.3452 72.6769H54.2454Z" stroke="white"/>
</g>
<defs>
<filter id="filter0_d_31_162" x="28.9739" y="12.0162" width="74.9385" height="88.1553" filterUnits="userSpaceOnUse" color-interpolation-filters="sRGB">
<feFlood flood-opacity="0" result="BackgroundImageFix"/>
<feColorMatrix in="SourceAlpha" type="matrix" values="0 0 0 0 0 0 0 0 0 0 0 0 0 0 0 0 0 0 127 0" result="hardAlpha"/>
<feOffset dy="4"/>
<feGaussianBlur stdDeviation="8"/>
<feColorMatrix type="matrix" values="0 0 0 0 0 0 0 0 0 0 0 0 0 0 0 0 0 0 0.15 0"/>
<feBlend mode="normal" in2="BackgroundImageFix" result="effect1_dropShadow_31_162"/>
<feBlend mode="normal" in="SourceGraphic" in2="effect1_dropShadow_31_162" result="shape"/>
</filter>
<linearGradient id="paint0_linear_31_162" x1="19.5937" y1="2.99821" x2="133.311" y2="93.2667" gradientUnits="userSpaceOnUse">
<stop stop-color="#9013FE"/>
<stop offset="1" stop-color="#6610F2"/>
</linearGradient>
<linearGradient id="paint1_linear_31_162" x1="49.4407" y1="28.1465" x2="74.8595" y2="71.1351" gradientUnits="userSpaceOnUse">
<stop stop-color="white"/>
<stop offset="1" stop-color="#F1E5FC"/>
</linearGradient>
</defs>
</svg>
