<svg width="143" height="60" viewBox="0 0 143 60" fill="none" xmlns="http://www.w3.org/2000/svg">
<path d="M85.823 20.3833C82.6944 20.3833 80.3646 21.9196 80.3646 25.6169C80.3646 28.4026 81.9001 30.3364 85.6546 30.3364C88.8368 30.3364 90.998 28.4614 90.998 25.5019C90.998 22.148 89.0639 20.3833 85.823 20.3833ZM79.5658 46.4886C78.8255 47.3973 78.0878 48.3626 78.0878 49.502C78.0878 51.7749 80.9864 52.459 84.968 52.459C88.2665 52.459 92.7594 52.228 92.7594 49.1613C92.7594 47.3386 90.5979 47.2257 87.8666 47.0545L79.5658 46.4886ZM96.3984 20.5553C97.4203 21.8636 98.5024 23.6837 98.5024 26.2996C98.5024 32.6116 93.5547 36.3079 86.3912 36.3079C84.5694 36.3079 82.9202 36.0809 81.8976 35.7971L80.0204 38.8106L85.5927 39.151C95.4316 39.7778 101.23 40.0627 101.23 47.6235C101.23 54.165 95.4881 57.8591 85.5927 57.8591C75.3001 57.8591 71.3765 55.2429 71.3765 50.751C71.3765 48.1909 72.514 46.8292 74.5044 44.9497C72.6272 44.1562 72.0025 42.7353 72.0025 41.1992C72.0025 39.9472 72.6272 38.8102 73.6523 37.7289C74.6756 36.6495 75.8125 35.5675 77.1776 34.3168C74.3914 32.9523 72.2868 29.9951 72.2868 25.7863C72.2868 19.2475 76.6091 14.7567 85.3081 14.7567C87.7538 14.7567 89.2332 14.9818 90.5412 15.3251H101.631V20.1575L96.3984 20.5553Z" fill="#413000"/>
<path d="M111.641 10.2213C108.398 10.2213 106.523 8.34306 106.523 5.10043C106.523 1.86188 108.399 0.0976562 111.641 0.0976562C114.939 0.0976562 116.816 1.86188 116.816 5.10043C116.816 8.34301 114.939 10.2213 111.641 10.2213ZM104.304 44.3956V39.9054L107.205 39.5085C108.001 39.3931 108.114 39.2239 108.114 38.3688V21.6502C108.114 21.026 107.944 20.6262 107.374 20.4569L104.304 19.3755L104.929 14.7709H116.701V38.3693C116.701 39.2808 116.756 39.3935 117.612 39.5089L120.512 39.9058V44.396H104.303" fill="#413000"/>
<path d="M143 42.1918C140.553 43.3845 136.972 44.4652 133.729 44.4652C126.962 44.4652 124.404 41.7382 124.404 35.3095V20.4116C124.404 20.0711 124.404 19.8426 123.947 19.8426H119.967V14.7817C124.973 14.2115 126.961 11.7089 127.587 5.51052H132.99V13.5883C132.99 13.985 132.99 14.1568 133.446 14.1568H141.463V19.8425H132.99V33.4331C132.99 36.7887 133.787 38.0956 136.857 38.0956C138.451 38.0956 140.098 37.6987 141.463 37.1864L143 42.1918Z" fill="#413000"/>
<path d="M58.7402 27.2682L32.7368 1.26801C31.2407 -0.229523 28.812 -0.229523 27.314 1.26801L21.9147 6.66785L28.7635 13.5167C30.3557 12.9791 32.1807 13.3396 33.4493 14.6084C34.7244 15.8851 35.0823 17.7257 34.5312 19.3232L41.1323 25.9243C42.7293 25.3739 44.5719 25.7295 45.8471 27.007C47.63 28.7893 47.63 31.6773 45.8471 33.4601C44.064 35.2435 41.176 35.2435 39.3919 33.4601C38.0513 32.1185 37.7197 30.1489 38.3987 28.4972L32.2425 22.3409L32.242 38.541C32.6766 38.7562 33.0868 39.0433 33.449 39.404C35.2313 41.1861 35.2313 44.0736 33.449 45.8587C31.6662 47.6407 28.7768 47.6407 26.9959 45.8587C25.2133 44.0738 25.2133 41.1862 26.9959 39.404C27.4364 38.9642 27.9461 38.6314 28.49 38.4083V22.0577C27.9459 21.8355 27.4367 21.5051 26.9955 21.0619C25.6453 19.7127 25.3201 17.731 26.0126 16.0729L19.261 9.32026L1.43258 27.1481C-0.0654178 28.6468 -0.0654178 31.0754 1.43258 32.573L27.4344 58.5733C28.9314 60.0708 31.3592 60.0708 32.8583 58.5733L58.7399 32.6959C60.2375 31.1976 60.2375 28.7683 58.7399 27.2704" fill="#F05133"/>
</svg>
