<svg width="215" height="58" viewBox="0 0 215 58" fill="none" xmlns="http://www.w3.org/2000/svg">
<g clip-path="url(#clip0_34_10)">
<path fill-rule="evenodd" clip-rule="evenodd" d="M29.6092 0C22.5568 0.0608875 15.7537 2.60768 10.4046 7.18929C5.05562 11.7709 1.50594 18.0917 0.384306 25.032C-0.737329 31.9724 0.641471 39.0845 4.2765 45.1087C7.91152 51.1329 13.5682 55.6803 20.2446 57.9456C21.7175 58.2417 22.2569 57.3052 22.2569 56.5137C22.2569 55.825 22.2084 53.4627 22.2084 51.0037C13.9712 52.774 12.2559 47.4573 12.2559 47.4573C10.9346 44.0135 8.97073 43.1254 8.97073 43.1254C6.27349 41.3129 9.16469 41.3129 9.16469 41.3129C12.1589 41.5062 13.7288 44.3337 13.7288 44.3337C16.3715 48.859 20.6386 47.5842 22.3539 46.7927C22.4901 45.2891 23.1608 43.8835 24.245 42.8294C17.6746 42.1406 10.7588 39.579 10.7588 28.1602C10.7189 25.2152 11.8021 22.3648 13.7894 20.1852C13.4924 19.4481 12.462 16.391 14.0803 12.331C14.0803 12.331 16.5836 11.5456 22.2206 15.3821C24.6341 14.7351 27.122 14.404 29.6213 14.3973C32.1229 14.4 34.6133 14.7311 37.0281 15.3821C42.665 11.5456 45.1623 12.331 45.1623 12.331C46.7806 16.4152 45.7684 19.4723 45.4593 20.1852C47.4643 22.354 48.5502 25.2116 48.4899 28.1602C48.4899 39.579 41.5801 42.0923 34.9612 42.8294C36.0341 43.7658 36.9736 45.536 36.9736 48.3333C36.9736 52.3208 36.9251 55.5229 36.9251 56.5017C36.9251 57.2931 37.4645 58.2296 38.9313 57.9335C45.596 55.6635 51.2413 51.1185 54.8699 45.1016C58.4985 39.0846 59.8769 31.983 58.7615 25.0512C57.6461 18.1195 54.1087 11.8037 48.7743 7.21976C43.4399 2.63579 36.6518 0.0786164 29.6092 0Z" fill="#1C1815"/>
</g>
<g clip-path="url(#clip1_34_10)">
<path d="M100.861 26.1353H89.0024C88.9292 26.1347 88.8566 26.1488 88.7889 26.1766C88.7211 26.2044 88.6596 26.2453 88.6078 26.2971C88.556 26.3489 88.515 26.4104 88.4872 26.4782C88.4595 26.5459 88.4454 26.6185 88.4459 26.6918V32.4878C88.4459 32.5609 88.4603 32.6333 88.4883 32.7008C88.5163 32.7683 88.5573 32.8297 88.6089 32.8813C88.6606 32.933 88.722 32.974 88.7895 33.002C88.857 33.0299 88.9294 33.0443 89.0024 33.0443H93.6268V40.2512C93.6268 40.2512 92.5882 40.6039 89.7078 40.6039C86.318 40.6039 81.5839 39.3655 81.5839 28.9569C81.5839 18.5482 86.5218 17.1727 91.15 17.1727C95.159 17.1727 96.8834 17.8781 97.9807 18.2191C98.0613 18.2346 98.1443 18.2322 98.2239 18.212C98.3035 18.1919 98.3777 18.1545 98.4412 18.1026C98.5048 18.0506 98.5562 17.9853 98.5917 17.9113C98.6272 17.8373 98.6461 17.7564 98.6469 17.6743L99.9676 12.0703C99.9701 11.9866 99.9522 11.9036 99.9153 11.8285C99.8784 11.7533 99.8237 11.6883 99.7559 11.6392C99.3092 11.3178 96.5895 9.7973 89.7157 9.7973C81.7995 9.7973 73.6755 13.1676 73.6755 29.3605C73.6755 45.5535 82.9751 47.9715 90.813 47.9715C97.2988 47.9715 101.237 45.1969 101.237 45.1969C101.3 45.1473 101.349 45.0831 101.38 45.0099C101.412 44.9367 101.424 44.8569 101.418 44.7776V26.6918C101.418 26.5442 101.359 26.4026 101.255 26.2983C101.15 26.1939 101.009 26.1353 100.861 26.1353Z" fill="#1C1815"/>
<path d="M161.992 11.7568C161.995 11.6839 161.984 11.6111 161.959 11.5426C161.934 11.4741 161.895 11.4112 161.846 11.3577C161.796 11.3041 161.737 11.2609 161.67 11.2305C161.604 11.2001 161.532 11.1832 161.459 11.1807H154.797C154.72 11.1756 154.642 11.187 154.569 11.214C154.496 11.241 154.43 11.2831 154.374 11.3374C154.319 11.3918 154.276 11.4572 154.247 11.5295C154.219 11.6017 154.206 11.6792 154.209 11.7568V24.6461H143.801V11.7568C143.801 11.6839 143.787 11.6116 143.76 11.5441C143.732 11.4766 143.691 11.4152 143.64 11.3635C143.589 11.3118 143.528 11.2707 143.46 11.2427C143.393 11.2147 143.321 11.2003 143.248 11.2003H136.586C136.512 11.1982 136.438 11.211 136.369 11.2381C136.3 11.2652 136.237 11.3059 136.184 11.3578C136.13 11.4098 136.088 11.4719 136.06 11.5404C136.031 11.6089 136.017 11.6825 136.018 11.7568V46.6861C136.017 46.7592 136.031 46.8316 136.058 46.8993C136.086 46.9671 136.126 47.0287 136.178 47.0807C136.229 47.1328 136.29 47.1742 136.357 47.2026C136.425 47.2311 136.497 47.246 136.57 47.2465H143.232C143.305 47.246 143.378 47.2311 143.445 47.2026C143.512 47.1742 143.573 47.1328 143.625 47.0807C143.676 47.0287 143.717 46.9671 143.744 46.8993C143.772 46.8316 143.785 46.7592 143.785 46.6861V31.7432H154.209V46.6939C154.209 46.767 154.223 46.8395 154.25 46.9072C154.278 46.9749 154.318 47.0365 154.369 47.0886C154.421 47.1406 154.482 47.182 154.549 47.2105C154.616 47.2389 154.689 47.2538 154.762 47.2543H161.459C161.606 47.2523 161.747 47.1923 161.85 47.0874C161.954 46.9826 162.012 46.8412 162.012 46.6939L161.992 11.7568Z" fill="#1C1815"/>
<path d="M113.464 16.3223C113.456 15.4716 113.196 14.6424 112.717 13.9392C112.238 13.236 111.562 12.6902 110.773 12.3705C109.985 12.0508 109.12 11.9716 108.286 12.1427C107.453 12.3139 106.689 12.7278 106.09 13.3324C105.492 13.937 105.085 14.7051 104.923 15.5401C104.76 16.3752 104.847 17.2397 105.175 18.0249C105.502 18.8101 106.055 19.4808 106.763 19.9526C107.471 20.4244 108.303 20.6762 109.153 20.6762C109.723 20.6762 110.287 20.5633 110.813 20.344C111.339 20.1247 111.816 19.8033 112.217 19.3984C112.618 18.9935 112.934 18.5132 113.148 17.9852C113.363 17.4572 113.47 16.892 113.464 16.3223Z" fill="#1C1815"/>
<path d="M112.986 39.3146V23.1804C112.986 23.0335 112.928 22.8925 112.825 22.7883C112.721 22.684 112.58 22.625 112.434 22.6239H105.771C105.616 22.6392 105.471 22.7111 105.365 22.826C105.259 22.9408 105.198 23.0906 105.195 23.247V46.3686C105.195 47.0505 105.619 47.2504 106.167 47.2504H112.163C112.822 47.2504 112.982 46.9291 112.982 46.3608L112.986 39.3146Z" fill="#1C1815"/>
<path d="M187.371 22.6788H180.744C180.672 22.6793 180.6 22.6941 180.533 22.7223C180.466 22.7506 180.406 22.7917 180.355 22.8434C180.304 22.8951 180.264 22.9563 180.236 23.0235C180.209 23.0907 180.195 23.1627 180.196 23.2353V40.3649C178.985 41.1601 177.569 41.5875 176.12 41.5954C173.73 41.5954 173.095 40.5138 173.095 38.1703V23.2353C173.095 23.1627 173.081 23.0907 173.054 23.0235C173.027 22.9563 172.987 22.8951 172.936 22.8434C172.885 22.7917 172.824 22.7506 172.757 22.7223C172.69 22.6941 172.619 22.6793 172.546 22.6788H165.817C165.745 22.6793 165.673 22.6941 165.606 22.7223C165.539 22.7506 165.479 22.7917 165.428 22.8434C165.377 22.8951 165.336 22.9563 165.309 23.0235C165.282 23.0907 165.268 23.1627 165.269 23.2353V39.3028C165.269 46.255 169.14 47.9558 174.47 47.9558C178.84 47.9558 182.367 45.5378 182.367 45.5378C182.422 46.0173 182.503 46.4935 182.61 46.9643C182.658 47.0521 182.728 47.1259 182.813 47.1788C182.898 47.2316 182.996 47.2617 183.096 47.2661H187.375C187.522 47.265 187.663 47.206 187.766 47.1017C187.87 46.9975 187.928 46.8565 187.928 46.7096V23.2353C187.927 23.088 187.868 22.947 187.764 22.8429C187.659 22.7388 187.519 22.6798 187.371 22.6788Z" fill="#1C1815"/>
<path d="M205.489 21.8911C203.268 21.8772 201.084 22.4577 199.163 23.5723V11.7568C199.164 11.6839 199.15 11.6116 199.122 11.5441C199.095 11.4766 199.054 11.4152 199.003 11.3635C198.952 11.3118 198.891 11.2707 198.823 11.2427C198.756 11.2147 198.684 11.2003 198.611 11.2003H191.913C191.841 11.2003 191.768 11.2147 191.701 11.2427C191.634 11.2707 191.573 11.3118 191.521 11.3635C191.47 11.4152 191.429 11.4766 191.402 11.5441C191.374 11.6116 191.36 11.6839 191.361 11.7568V46.6861C191.36 46.7592 191.374 46.8316 191.402 46.8993C191.429 46.9671 191.47 47.0287 191.521 47.0807C191.572 47.1328 191.633 47.1742 191.701 47.2026C191.768 47.2311 191.84 47.246 191.913 47.2465H196.561C196.662 47.2448 196.759 47.2163 196.845 47.164C196.93 47.1116 197 47.0372 197.047 46.9486C197.181 46.4194 197.275 45.8811 197.329 45.338C197.329 45.338 200.073 47.9323 205.253 47.9323C211.34 47.9323 214.827 44.8442 214.827 34.0711C214.827 23.298 209.27 21.8911 205.489 21.8911ZM202.875 41.5836C201.514 41.5488 200.185 41.1656 199.015 40.4707V29.3919C200.068 28.7896 201.234 28.4108 202.44 28.2789C204.826 28.0673 207.142 28.7884 207.142 34.4787C207.127 40.4942 206.088 41.6816 202.875 41.5836Z" fill="#1C1815"/>
<path d="M132.181 22.62H127.173V16.0049C127.173 15.7541 127.043 15.613 126.753 15.613H119.919C119.652 15.613 119.527 15.7305 119.527 15.9853V22.8395C119.527 22.8395 116.106 23.6664 115.874 23.733C115.76 23.7676 115.66 23.8383 115.59 23.9343C115.519 24.0304 115.482 24.1467 115.482 24.2659V28.5768C115.485 28.7158 115.54 28.8488 115.635 28.9496C115.731 29.0504 115.861 29.1117 116 29.1215H119.527V39.4596C119.527 47.1407 124.915 47.8931 128.54 47.8931C129.889 47.8519 131.227 47.6319 132.518 47.2386C132.615 47.1971 132.697 47.1268 132.754 47.0371C132.81 46.9474 132.837 46.8427 132.831 46.737V42.0108C132.83 41.8642 132.772 41.7238 132.669 41.6198C132.565 41.5158 132.426 41.4564 132.279 41.4543C131.985 41.4543 131.24 41.5719 130.472 41.5719C128.011 41.5719 127.176 40.4276 127.176 38.9462V29.1215H132.185C132.258 29.121 132.33 29.1061 132.398 29.0776C132.465 29.0492 132.526 29.0078 132.577 28.9557C132.629 28.9037 132.669 28.8421 132.697 28.7743C132.724 28.7066 132.738 28.6342 132.737 28.5611V23.1804C132.738 23.107 132.724 23.0342 132.696 22.9662C132.668 22.8983 132.628 22.8365 132.576 22.7844C132.524 22.7323 132.463 22.6909 132.395 22.6627C132.327 22.6345 132.254 22.62 132.181 22.62Z" fill="#1C1815"/>
</g>
<defs>
<clipPath id="clip0_34_10">
<rect width="59.1757" height="58" fill="white"/>
</clipPath>
<clipPath id="clip1_34_10">
<rect width="141.152" height="38.1742" fill="white" transform="translate(73.6755 9.7973)"/>
</clipPath>
</defs>
</svg>
