<svg width="91" height="128" viewBox="0 0 91 128" fill="none" xmlns="http://www.w3.org/2000/svg">
<path d="M8.42261 0.103516H14.1539V5.78501H19.4367V0.103516H25.1681V17.2975H19.4367V11.5662H14.2038V17.2975H8.42261M32.7434 5.83485H27.6849V0.103516H43.5582V5.83485H38.4747V17.2975H32.7434M46.075 0.103516H52.0804L55.7684 6.15879L59.4564 0.103516H65.4618V17.2975H59.7305V8.77527L55.7185 14.9551L51.7066 8.77527V17.2975H46.075M68.3026 0.103516H74.0339V11.616H82.1574V17.2975H68.3026" fill="black"/>
<path d="M8.22321 117.471L0 25.1719H90.4055L82.1823 117.421L45.128 127.688" fill="#E44D26"/>
<path d="M45.2026 119.838V32.7472H82.1573L75.1052 111.491" fill="#F16529"/>
<path d="M16.7954 44.0354H45.2029V55.3485H29.205L30.2516 66.9358H45.2029V78.224H19.8853M20.3837 83.9055H31.7467L32.5441 92.9511L45.2029 96.34V108.152L21.9785 101.673" fill="#EBEBEB"/>
<path d="M73.5105 44.0354H45.1528V55.3485H72.4639M71.4422 66.9358H45.1528V78.249H59.1074L57.7867 92.9511L45.1528 96.34V108.102L68.3273 101.673" fill="white"/>
</svg>
