<svg width="495" height="373" viewBox="0 0 495 373" fill="none" xmlns="http://www.w3.org/2000/svg">
<g clip-path="url(#clip0_31_449)">
<path d="M285.254 18.154C289.5 27.1736 280.503 29.7284 270.197 34.5627C259.891 39.3971 252.178 44.6804 247.932 35.6608C243.686 26.6413 240.241 8.73907 254.821 1.90001C269.904 -5.17465 281.008 9.13443 285.254 18.154Z" fill="#837D6B"/>
<path d="M264.227 35.8919C271.889 35.8919 278.101 29.6911 278.101 22.0421C278.101 14.393 271.889 8.19226 264.227 8.19226C256.564 8.19226 250.352 14.393 250.352 22.0421C250.352 29.6911 256.564 35.8919 264.227 35.8919Z" fill="#FFB8B8"/>
<path d="M332.963 83.4632C332.483 82.8373 332.003 82.2226 331.517 81.6249C330.89 80.8467 330.259 80.093 329.625 79.3637C322.433 71.0801 314.785 65.8641 306.362 65.3058H306.351L306.227 65.2946L289.444 81.6249L283.738 87.1736L283.863 87.4781L286.941 95.1301H340.883C338.452 91.1036 335.809 87.2091 332.963 83.4632Z" fill="#655EE0"/>
<path d="M249.139 27.618L254.106 25.2883L253.414 18.1362L256.735 24.055L259.109 22.9415L258.705 18.7694L260.643 22.222L278.281 13.9483C276.625 10.429 273.635 7.71089 269.971 6.39178C266.307 5.07266 262.268 5.26063 258.742 6.91433L256.186 8.11344C252.66 9.76715 249.937 12.7511 248.616 16.4089C247.294 20.0667 247.483 24.0987 249.139 27.618Z" fill="#837D6B"/>
<path d="M364.088 279.014H74.3893C71.9182 279.012 69.549 278.03 67.8017 276.286C66.0543 274.542 65.0714 272.177 65.0686 269.71V95.9444C65.0706 94.1372 65.7907 92.4046 67.0708 91.1266C68.3509 89.8487 70.0866 89.1299 71.897 89.1278H366.463C368.304 89.1299 370.07 89.8612 371.372 91.1612C372.675 92.4612 373.407 94.2237 373.409 96.0622V269.71C373.406 272.177 372.423 274.542 370.676 276.286C368.929 278.03 366.56 279.012 364.088 279.014Z" fill="#F2F2F2"/>
<path d="M83.4277 269.71H355.05C357.447 269.71 359.746 268.76 361.441 267.068C363.136 265.376 364.088 263.081 364.088 260.688V113.203C364.088 110.81 363.136 108.515 361.441 106.823C359.746 105.131 357.447 104.181 355.05 104.181H83.4277C81.0306 104.181 78.7317 105.131 77.0367 106.823C75.3416 108.515 74.3894 110.81 74.3894 113.203V260.688C74.3894 263.081 75.3416 265.376 77.0367 267.068C78.7317 268.76 81.0306 269.71 83.4277 269.71Z" fill="white"/>
<path d="M373.28 95.4121H64.938V90.6752C64.9416 88.2002 65.9285 85.8277 67.6822 84.0782C69.436 82.3286 71.8133 81.3449 74.2927 81.3429H363.925C366.404 81.3449 368.782 82.3286 370.535 84.0782C372.289 85.8277 373.276 88.2002 373.28 90.6752V95.4121Z" fill="#1FC1AE"/>
<path d="M81.9385 90.807C83.2748 90.807 84.3581 89.7256 84.3581 88.3916C84.3581 87.0576 83.2748 85.9762 81.9385 85.9762C80.6021 85.9762 79.5188 87.0576 79.5188 88.3916C79.5188 89.7256 80.6021 90.807 81.9385 90.807Z" fill="white"/>
<path d="M91.123 90.807C92.4594 90.807 93.5427 89.7256 93.5427 88.3916C93.5427 87.0576 92.4594 85.9762 91.123 85.9762C89.7867 85.9762 88.7034 87.0576 88.7034 88.3916C88.7034 89.7256 89.7867 90.807 91.123 90.807Z" fill="white"/>
<path d="M100.308 90.807C101.644 90.807 102.727 89.7256 102.727 88.3916C102.727 87.0576 101.644 85.9762 100.308 85.9762C98.9713 85.9762 97.8879 87.0576 97.8879 88.3916C97.8879 89.7256 98.9713 90.807 100.308 90.807Z" fill="white"/>
<path d="M227.714 237.726H203.424C202.001 237.724 200.637 237.159 199.631 236.155C198.625 235.15 198.059 233.789 198.057 232.369V208.121C198.059 206.701 198.625 205.339 199.631 204.335C200.637 203.331 202.001 202.766 203.424 202.764H227.714C229.137 202.766 230.501 203.331 231.507 204.335C232.513 205.339 233.079 206.701 233.081 208.121V232.369C233.079 233.789 232.513 235.15 231.507 236.155C230.501 237.159 229.137 237.724 227.714 237.726ZM203.424 203.892C202.301 203.893 201.224 204.339 200.429 205.132C199.635 205.925 199.188 207 199.187 208.121V232.369C199.188 233.49 199.635 234.565 200.429 235.358C201.224 236.151 202.301 236.597 203.424 236.598H227.714C228.838 236.597 229.914 236.151 230.709 235.358C231.503 234.565 231.95 233.49 231.951 232.369V208.121C231.95 207 231.503 205.925 230.709 205.132C229.914 204.339 228.838 203.893 227.714 203.892H203.424Z" fill="#CCCCCC"/>
<path d="M222.913 230.959H208.225C207.776 230.958 207.345 230.78 207.028 230.463C206.71 230.146 206.531 229.716 206.531 229.267V211.223C206.531 210.774 206.71 210.344 207.028 210.027C207.345 209.71 207.776 209.531 208.225 209.531H218.868C219.254 209.531 219.628 209.663 219.929 209.904L223.974 213.149C224.172 213.307 224.332 213.507 224.442 213.736C224.551 213.964 224.608 214.214 224.607 214.467V229.267C224.607 229.716 224.428 230.146 224.11 230.463C223.793 230.78 223.362 230.958 222.913 230.959ZM208.225 210.659C208.076 210.659 207.932 210.718 207.826 210.824C207.72 210.93 207.661 211.073 207.661 211.223V229.267C207.661 229.417 207.72 229.56 207.826 229.666C207.932 229.771 208.076 229.831 208.225 229.831H222.913C223.062 229.831 223.206 229.771 223.312 229.666C223.418 229.56 223.477 229.417 223.478 229.267V214.467C223.478 214.383 223.459 214.299 223.422 214.223C223.386 214.147 223.333 214.08 223.267 214.028L219.221 210.783C219.121 210.703 218.996 210.659 218.868 210.659H208.225Z" fill="#CCCCCC"/>
<path d="M220.088 217.425H211.05C210.9 217.425 210.756 217.366 210.651 217.26C210.545 217.154 210.485 217.011 210.485 216.862C210.485 216.712 210.545 216.569 210.651 216.463C210.756 216.357 210.9 216.298 211.05 216.298H220.088C220.238 216.298 220.382 216.357 220.488 216.463C220.594 216.569 220.653 216.712 220.653 216.862C220.653 217.011 220.594 217.154 220.488 217.26C220.382 217.366 220.238 217.425 220.088 217.425Z" fill="#CCCCCC"/>
<path d="M220.088 220.809H211.05C210.9 220.809 210.756 220.749 210.651 220.644C210.545 220.538 210.485 220.394 210.485 220.245C210.485 220.095 210.545 219.952 210.651 219.846C210.756 219.74 210.9 219.681 211.05 219.681H220.088C220.238 219.681 220.382 219.74 220.488 219.846C220.594 219.952 220.653 220.095 220.653 220.245C220.653 220.394 220.594 220.538 220.488 220.644C220.382 220.749 220.238 220.809 220.088 220.809Z" fill="#CCCCCC"/>
<path d="M220.088 224.192H211.05C210.9 224.192 210.756 224.133 210.651 224.027C210.545 223.921 210.485 223.778 210.485 223.628C210.485 223.479 210.545 223.335 210.651 223.229C210.756 223.124 210.9 223.064 211.05 223.064H220.088C220.238 223.064 220.382 223.124 220.488 223.229C220.594 223.335 220.653 223.479 220.653 223.628C220.653 223.778 220.594 223.921 220.488 224.027C220.382 224.133 220.238 224.192 220.088 224.192Z" fill="#CCCCCC"/>
<path d="M285.333 237.726H261.043C259.62 237.724 258.256 237.159 257.25 236.155C256.244 235.15 255.678 233.789 255.677 232.369V208.121C255.678 206.701 256.244 205.339 257.25 204.335C258.256 203.331 259.62 202.766 261.043 202.764H285.333C286.756 202.766 288.12 203.331 289.126 204.335C290.132 205.339 290.698 206.701 290.7 208.121V232.369C290.698 233.789 290.132 235.15 289.126 236.155C288.12 237.159 286.756 237.724 285.333 237.726ZM261.043 203.892C259.92 203.893 258.843 204.339 258.049 205.132C257.254 205.925 256.808 207 256.806 208.121V232.369C256.808 233.49 257.254 234.565 258.049 235.358C258.843 236.151 259.92 236.597 261.043 236.598H285.333C286.457 236.597 287.534 236.151 288.328 235.358C289.122 234.565 289.569 233.49 289.57 232.369V208.121C289.569 207 289.122 205.925 288.328 205.132C287.534 204.339 286.457 203.893 285.333 203.892H261.043Z" fill="#CCCCCC"/>
<path d="M281.097 226.448H265.28C264.83 226.447 264.4 226.269 264.082 225.952C263.764 225.635 263.585 225.205 263.585 224.756V215.734C263.585 215.285 263.764 214.855 264.082 214.538C264.4 214.221 264.83 214.043 265.28 214.042H281.097C281.546 214.043 281.977 214.221 282.294 214.538C282.612 214.855 282.791 215.285 282.791 215.734V224.756C282.791 225.205 282.612 225.635 282.294 225.952C281.977 226.269 281.546 226.447 281.097 226.448ZM265.28 215.17C265.13 215.17 264.986 215.23 264.88 215.335C264.774 215.441 264.715 215.584 264.715 215.734V224.756C264.715 224.906 264.774 225.049 264.88 225.155C264.986 225.26 265.13 225.32 265.28 225.32H281.097C281.246 225.32 281.39 225.26 281.496 225.155C281.602 225.049 281.661 224.906 281.662 224.756V215.734C281.661 215.584 281.602 215.441 281.496 215.335C281.39 215.23 281.246 215.17 281.097 215.17H265.28Z" fill="#CCCCCC"/>
<path d="M273.188 221.733C272.871 221.733 272.56 221.645 272.29 221.477L263.851 216.212C263.724 216.133 263.634 216.006 263.6 215.861C263.567 215.715 263.593 215.562 263.672 215.435C263.751 215.309 263.878 215.219 264.023 215.185C264.169 215.151 264.323 215.177 264.45 215.255L272.889 220.521C272.979 220.576 273.083 220.606 273.189 220.606C273.294 220.606 273.398 220.576 273.488 220.521L281.927 215.255C282.054 215.177 282.207 215.151 282.353 215.185C282.499 215.219 282.625 215.309 282.705 215.435C282.784 215.562 282.81 215.715 282.776 215.861C282.743 216.006 282.653 216.133 282.526 216.212L274.087 221.477C273.817 221.645 273.506 221.733 273.188 221.733Z" fill="#CCCCCC"/>
<path d="M170.095 237.726H145.805C144.382 237.724 143.018 237.159 142.012 236.155C141.006 235.15 140.44 233.789 140.438 232.369V208.121C140.44 206.701 141.006 205.339 142.012 204.335C143.018 203.331 144.382 202.766 145.805 202.764H170.095C171.518 202.766 172.882 203.331 173.888 204.335C174.894 205.339 175.46 206.701 175.462 208.121V232.369C175.46 233.789 174.894 235.15 173.888 236.155C172.882 237.159 171.518 237.724 170.095 237.726ZM145.805 203.892C144.681 203.893 143.605 204.339 142.81 205.132C142.016 205.925 141.569 207 141.568 208.121V232.369C141.569 233.49 142.016 234.565 142.81 235.358C143.605 236.151 144.681 236.597 145.805 236.598H170.095C171.218 236.597 172.295 236.151 173.09 235.358C173.884 234.565 174.331 233.49 174.332 232.369V208.121C174.331 207 173.884 205.925 173.09 205.132C172.295 204.339 171.218 203.893 170.095 203.892H145.805Z" fill="#CCCCCC"/>
<path d="M165.858 226.448H150.041C149.592 226.447 149.161 226.269 148.844 225.952C148.526 225.635 148.347 225.205 148.347 224.756V215.734C148.347 215.285 148.526 214.855 148.844 214.538C149.161 214.221 149.592 214.043 150.041 214.042H165.858C166.308 214.043 166.738 214.221 167.056 214.538C167.374 214.855 167.553 215.285 167.553 215.734V224.756C167.553 225.205 167.374 225.635 167.056 225.952C166.738 226.269 166.308 226.447 165.858 226.448ZM150.041 215.17C149.892 215.17 149.748 215.23 149.642 215.335C149.536 215.441 149.477 215.584 149.476 215.734V224.756C149.477 224.906 149.536 225.049 149.642 225.155C149.748 225.26 149.892 225.32 150.041 225.32H165.858C166.008 225.32 166.152 225.26 166.258 225.155C166.364 225.049 166.423 224.906 166.423 224.756V215.734C166.423 215.584 166.364 215.441 166.258 215.335C166.152 215.23 166.008 215.17 165.858 215.17H150.041Z" fill="#CCCCCC"/>
<path d="M163.352 226.448H151.984C151.785 226.448 151.59 226.396 151.419 226.297C151.247 226.198 151.104 226.055 151.005 225.884C150.906 225.712 150.854 225.518 150.854 225.32C150.854 225.122 150.906 224.927 151.005 224.756L154.429 218.835C154.529 218.664 154.671 218.521 154.843 218.422C155.015 218.323 155.21 218.271 155.408 218.271C155.606 218.271 155.801 218.323 155.973 218.422C156.145 218.521 156.287 218.664 156.386 218.835L158.598 222.659L159.879 220.444C159.978 220.272 160.121 220.13 160.293 220.031C160.465 219.932 160.659 219.88 160.858 219.88C161.056 219.88 161.251 219.932 161.423 220.031C161.594 220.13 161.737 220.272 161.836 220.444L164.33 224.756C164.429 224.927 164.482 225.122 164.482 225.32C164.482 225.518 164.429 225.712 164.33 225.884C164.231 226.055 164.088 226.198 163.917 226.297C163.745 226.396 163.55 226.448 163.352 226.448ZM163.352 225.32L160.858 221.008L159.087 224.069C159.038 224.155 158.966 224.226 158.881 224.275C158.795 224.325 158.697 224.351 158.598 224.351C158.499 224.351 158.401 224.325 158.315 224.275C158.23 224.226 158.158 224.155 158.109 224.069L155.408 219.399L151.984 225.32H163.352Z" fill="#CCCCCC"/>
<path d="M164.164 218.553C164.788 218.553 165.294 218.048 165.294 217.425C165.294 216.802 164.788 216.297 164.164 216.297C163.54 216.297 163.034 216.802 163.034 217.425C163.034 218.048 163.54 218.553 164.164 218.553Z" fill="#CCCCCC"/>
<path d="M434.304 365.487L427.378 365.487L424.084 338.821L434.305 338.822L434.304 365.487Z" fill="#FFB8B8"/>
<path d="M436.07 372.189L413.74 372.188V371.906C413.74 370.766 413.965 369.638 414.401 368.586C414.838 367.533 415.478 366.576 416.285 365.771C417.093 364.965 418.051 364.326 419.105 363.89C420.16 363.454 421.29 363.23 422.431 363.23H422.432L436.071 363.23L436.07 372.189Z" fill="#B6B6B6"/>
<path d="M462.549 365.487L455.623 365.487L452.329 338.821L462.55 338.822L462.549 365.487Z" fill="#FFB8B8"/>
<path d="M464.315 372.189L441.984 372.188V371.906C441.984 370.766 442.209 369.638 442.646 368.586C443.083 367.533 443.723 366.576 444.53 365.771C445.337 364.965 446.295 364.326 447.35 363.89C448.404 363.454 449.535 363.23 450.676 363.23H450.677L464.315 363.23L464.315 372.189Z" fill="#B6B6B6"/>
<path d="M460.473 353.928L454.059 351.98C453.581 351.835 453.156 351.553 452.838 351.169C452.52 350.784 452.322 350.315 452.27 349.819L446.29 293.245C446.286 293.177 446.255 293.113 446.205 293.066C446.155 293.019 446.089 292.993 446.02 292.993C445.951 292.987 445.883 293.007 445.829 293.05C445.775 293.093 445.74 293.156 445.732 293.224L435.716 348.034C435.655 348.366 435.528 348.684 435.343 348.966C435.158 349.249 434.917 349.493 434.637 349.682C434.356 349.871 434.04 350.002 433.708 350.068C433.376 350.133 433.034 350.132 432.702 350.064L424.505 348.378C423.904 348.252 423.368 347.915 422.996 347.427C422.625 346.938 422.442 346.333 422.481 345.721L428.574 255.886L469.889 251.436L463.75 351.655C463.71 352.299 463.426 352.904 462.956 353.347C462.485 353.789 461.863 354.037 461.217 354.038C460.965 354.038 460.714 354.001 460.473 353.928Z" fill="#B6B6B6"/>
<path d="M460.433 177.653C468.096 177.653 474.308 171.453 474.308 163.804C474.308 156.155 468.096 149.954 460.433 149.954C452.771 149.954 446.559 156.155 446.559 163.804C446.559 171.453 452.771 177.653 460.433 177.653Z" fill="#FFB8B8"/>
<path d="M428.51 256.413L437.468 200.108C437.945 197.114 439.054 194.256 440.723 191.724C442.392 189.192 444.582 187.043 447.148 185.421C449.713 183.8 452.595 182.742 455.602 182.319C458.609 181.895 461.672 182.116 464.586 182.966C469.682 184.437 474.046 187.752 476.825 192.263C479.604 196.775 480.598 202.158 479.613 207.361L470.241 257.645L428.51 256.413Z" fill="#1FC1AE"/>
<path d="M464.263 266.488C464.956 266.031 465.541 265.428 465.975 264.722C466.409 264.015 466.683 263.222 466.777 262.398C466.871 261.575 466.783 260.74 466.52 259.954C466.256 259.168 465.823 258.45 465.25 257.849L474.512 239.945L464.082 241.056L456.885 257.888C455.938 258.914 455.401 260.252 455.375 261.647C455.35 263.043 455.838 264.399 456.748 265.459C457.657 266.519 458.925 267.209 460.31 267.399C461.695 267.589 463.102 267.264 464.263 266.488Z" fill="#FFB8B8"/>
<path d="M466.247 254.691C465.735 254.619 465.257 254.392 464.876 254.042L461.333 250.773C460.95 250.418 460.685 249.955 460.575 249.445C460.465 248.935 460.514 248.404 460.716 247.923L467.798 231.165L466.794 198.054C466.938 196.989 467.291 195.964 467.833 195.036C468.375 194.108 469.094 193.295 469.951 192.645C470.807 191.994 471.784 191.519 472.824 191.246C473.865 190.972 474.949 190.906 476.015 191.051C477.081 191.197 478.108 191.55 479.038 192.092C479.967 192.633 480.78 193.352 481.431 194.208C482.081 195.064 482.557 196.039 482.83 197.078C483.103 198.117 483.168 199.199 483.021 200.263L484.739 221.078C485.261 227.395 483.467 233.687 479.69 238.782L468.645 253.687C468.433 253.974 468.162 254.212 467.851 254.388C467.54 254.563 467.196 254.671 466.841 254.705C466.643 254.723 466.444 254.719 466.247 254.691Z" fill="#1FC1AE"/>
<path d="M380.535 156.258C380.687 157.073 381.015 157.845 381.497 158.52C381.98 159.194 382.605 159.755 383.328 160.163C384.051 160.571 384.855 160.815 385.683 160.879C386.511 160.943 387.343 160.825 388.12 160.533L401.025 176.028L404.067 166.006L391.346 152.829C390.768 151.558 389.744 150.542 388.466 149.975C387.189 149.407 385.747 149.327 384.415 149.75C383.082 150.173 381.951 151.069 381.236 152.268C380.521 153.467 380.272 154.887 380.535 156.258Z" fill="#FFB8B8"/>
<path d="M390.644 162.68C390.911 162.238 391.306 161.886 391.777 161.673L396.174 159.69C396.651 159.477 397.182 159.414 397.695 159.512C398.208 159.609 398.679 159.861 399.044 160.235L411.742 173.279L442.679 185.265C443.605 185.813 444.413 186.537 445.058 187.397C445.704 188.257 446.173 189.235 446.439 190.276C446.705 191.317 446.763 192.4 446.61 193.463C446.456 194.527 446.094 195.549 445.544 196.473C444.995 197.397 444.268 198.203 443.406 198.846C442.544 199.489 441.563 199.956 440.52 200.221C439.477 200.485 438.392 200.542 437.327 200.387C436.262 200.233 435.238 199.87 434.313 199.321L414.442 192.784C408.411 190.801 403.307 186.699 400.079 181.24L390.635 165.276C390.454 164.969 390.339 164.627 390.299 164.273C390.258 163.919 390.293 163.56 390.4 163.221C390.46 163.031 390.542 162.85 390.644 162.68Z" fill="#1FC1AE"/>
<path opacity="0.1" d="M471.687 211.828L471.122 229.872L460.716 247.923L469.405 227.807L471.687 211.828Z" fill="black"/>
<path d="M458.844 166.406C457.973 166.519 457.09 166.313 456.359 165.825C455.629 165.338 455.101 164.602 454.872 163.755C454.653 162.78 454.171 161.883 453.479 161.16C452.787 160.438 451.912 159.917 450.946 159.653C448.401 159.073 445.29 160.269 443.425 158.344C443.026 157.904 442.737 157.376 442.582 156.804C442.428 156.231 442.412 155.629 442.535 155.049C442.879 153.179 444.219 151.766 445.678 150.635C448.748 148.268 452.463 146.882 456.335 146.66C458.34 146.602 460.346 146.701 462.335 146.957C464.418 147.089 466.477 147.464 468.472 148.077C470.744 148.933 472.763 150.347 474.343 152.188C475.923 154.029 477.013 156.238 477.511 158.611C477.967 160.991 477.897 163.441 477.306 165.791C476.715 168.142 475.617 170.335 474.089 172.218C472.261 174.491 469.902 176.284 467.22 177.439C466.581 177.74 465.849 177.777 465.183 177.542C463.512 176.879 463.785 174.813 464.547 173.435C465.362 171.961 466.616 170.533 465.961 168.739C465.632 167.907 465.002 167.229 464.194 166.841C462.534 165.995 460.676 166.195 458.891 166.401L458.844 166.406Z" fill="#9C791F"/>
<path d="M375.899 174.228H204.171C201.7 174.225 199.331 173.244 197.584 171.499C195.836 169.755 194.853 167.39 194.851 164.923V128.27C194.853 125.804 195.836 123.439 197.584 121.694C199.331 119.95 201.7 118.969 204.171 118.966H375.899C378.37 118.969 380.739 119.95 382.486 121.694C384.234 123.439 385.217 125.804 385.22 128.27V164.923C385.217 167.39 384.234 169.755 382.486 171.499C380.739 173.244 378.37 174.225 375.899 174.228Z" fill="white"/>
<path d="M375.899 174.51H204.171C201.625 174.507 199.184 173.496 197.384 171.699C195.583 169.902 194.571 167.465 194.568 164.923V128.27C194.571 125.729 195.583 123.292 197.384 121.495C199.184 119.698 201.625 118.687 204.171 118.684H375.899C378.445 118.687 380.886 119.698 382.686 121.495C384.486 123.292 385.499 125.729 385.502 128.27V164.923C385.499 167.465 384.486 169.902 382.686 171.699C380.886 173.496 378.445 174.507 375.899 174.51ZM204.171 119.812C201.925 119.815 199.771 120.706 198.182 122.292C196.594 123.878 195.7 126.028 195.698 128.27V164.923C195.7 167.166 196.594 169.316 198.182 170.902C199.771 172.487 201.925 173.379 204.171 173.382H375.899C378.145 173.379 380.299 172.487 381.887 170.902C383.476 169.316 384.369 167.166 384.372 164.923V128.27C384.369 126.028 383.476 123.878 381.887 122.292C380.299 120.706 378.145 119.815 375.899 119.812H204.171Z" fill="#3F3D56"/>
<path d="M354.998 165.205H225.072C222.601 165.203 220.232 164.221 218.485 162.477C216.737 160.733 215.754 158.368 215.751 155.901V136.729C215.754 134.262 216.737 131.897 218.485 130.153C220.232 128.409 222.601 127.427 225.072 127.425H354.998C357.469 127.427 359.838 128.409 361.585 130.153C363.333 131.897 364.316 134.262 364.318 136.729V155.901C364.316 158.368 363.333 160.733 361.585 162.477C359.838 164.221 357.469 165.203 354.998 165.205Z" fill="#F2F2F2"/>
<path d="M253.032 154.872C259.188 154.872 264.178 149.89 264.178 143.745C264.178 137.599 259.188 132.618 253.032 132.618C246.876 132.618 241.885 137.599 241.885 143.745C241.885 149.89 246.876 154.872 253.032 154.872Z" fill="#FF6584"/>
<path d="M346.924 164.082L331.19 150.91L315.728 137.965C315.32 137.624 314.804 137.437 314.271 137.438C313.739 137.439 313.224 137.628 312.817 137.971L297.405 150.975L293.64 154.152L287.964 149.4L270.714 134.958C270.306 134.616 269.79 134.429 269.258 134.43C268.725 134.431 268.21 134.62 267.803 134.963L250.609 149.471L233.144 164.208C233.056 164.283 232.993 164.383 232.963 164.494C232.933 164.606 232.939 164.724 232.979 164.833C233.019 164.941 233.091 165.035 233.186 165.101C233.281 165.167 233.394 165.203 233.51 165.202L269.317 165.134L280.651 165.112L280.54 165.205L314.325 165.14L346.562 165.078C346.677 165.078 346.791 165.042 346.885 164.976C346.98 164.91 347.052 164.816 347.092 164.707C347.131 164.598 347.136 164.48 347.106 164.368C347.076 164.257 347.012 164.157 346.924 164.082Z" fill="#3F3D56"/>
<path d="M494.435 373H385.976C385.826 373 385.682 372.941 385.576 372.835C385.47 372.729 385.411 372.586 385.411 372.436C385.411 372.287 385.47 372.143 385.576 372.037C385.682 371.932 385.826 371.872 385.976 371.872H494.435C494.585 371.872 494.729 371.932 494.834 372.037C494.94 372.143 495 372.287 495 372.436C495 372.586 494.94 372.729 494.834 372.835C494.729 372.941 494.585 373 494.435 373Z" fill="#CCCCCC"/>
<path d="M341.227 74.3844C340.776 73.6526 340.18 73.0202 339.476 72.5257C338.772 72.0313 337.974 71.6852 337.132 71.5086C336.823 71.4438 336.509 71.4042 336.194 71.3902L293.155 32.9778C292.309 32.1104 291.181 31.5725 289.974 31.4609C289.736 31.4336 289.496 31.426 289.257 31.4383C288.264 31.4834 287.306 31.8163 286.499 32.3963C285.692 32.9764 285.073 33.7785 284.716 34.7045C284.358 35.6305 284.279 36.6403 284.488 37.6105C284.697 38.5807 285.184 39.4692 285.89 40.1674L302.368 54.5072L329.426 78.0498C329.449 78.4932 329.515 78.9333 329.624 79.3636C329.948 80.6103 330.644 81.7293 331.619 82.5722C332.595 83.4152 333.804 83.9422 335.087 84.0834C336.256 84.2198 337.441 84.0244 338.504 83.5195C339.348 83.1258 340.095 82.5545 340.696 81.8448C340.758 81.7714 340.815 81.7038 340.871 81.6248C341.661 80.5973 342.118 79.3538 342.182 78.0601C342.246 76.7665 341.912 75.4842 341.227 74.3844Z" fill="#FFB8B8"/>
<path d="M267.61 111.404L267.209 95.1301L266.87 81.6249L266.639 72.174L266.181 53.7516C266.09 52.7653 265.714 51.8266 265.098 51.0501C264.482 50.2737 263.653 49.693 262.712 49.3791C261.771 49.0651 260.759 49.0315 259.799 49.2823C258.839 49.533 257.973 50.0573 257.307 50.7912C257.15 50.9589 257.008 51.14 256.883 51.3325C256.187 52.3268 255.875 53.5381 256.002 54.7441L257.007 81.6249L257.51 95.1301L258.154 112.357C257.968 112.61 257.8 112.876 257.651 113.152C257.25 113.913 257.007 114.746 256.938 115.603C256.869 116.46 256.975 117.322 257.25 118.137C257.537 118.991 258.002 119.775 258.615 120.437C259.227 121.099 259.973 121.624 260.804 121.977C261.634 122.33 262.53 122.504 263.433 122.486C264.335 122.469 265.224 122.261 266.04 121.876C266.988 121.428 267.811 120.755 268.436 119.914C269.061 119.074 269.469 118.093 269.624 117.058C269.78 116.023 269.677 114.966 269.326 113.98C268.975 112.994 268.385 112.109 267.61 111.404Z" fill="#FFB8B8"/>
<path d="M306.362 65.3058L302.368 54.5073L295.906 37.0153C295.44 35.7426 294.692 34.5911 293.719 33.6461C292.746 32.7012 291.572 31.9871 290.285 31.5568C290.183 31.523 290.076 31.4892 289.974 31.4609C288.727 31.0831 287.413 30.9792 286.122 31.1564C284.831 31.3335 283.594 31.7875 282.495 32.4872L260.73 46.2688C258.737 47.528 257.312 49.5114 256.756 51.8C256.201 54.0886 256.558 56.5031 257.753 58.5334C260.475 63.2317 263.441 67.7847 266.639 72.174C269.175 75.6194 273.898 75.9859 274.717 81.6249H290.765L307.012 67.0652L306.362 65.3058Z" fill="#CCCCCC"/>
<path d="M57.1471 197.28C64.3763 197.28 70.2367 191.43 70.2367 184.214C70.2367 176.998 64.3763 171.148 57.1471 171.148C49.918 171.148 44.0576 176.998 44.0576 184.214C44.0576 191.43 49.918 197.28 57.1471 197.28Z" fill="#A0616A"/>
<path d="M89.2821 175.22C89.4111 175.322 89.5361 175.431 89.6572 175.546C90.2585 176.111 90.7333 176.797 91.0506 177.558C91.3678 178.32 91.5203 179.139 91.4981 179.964C91.4758 180.788 91.2793 181.598 90.9215 182.342C90.5636 183.085 90.0525 183.744 89.4216 184.277C89.2745 184.4 89.121 184.515 88.9618 184.623L89.8477 214.478C89.8729 215.455 89.5818 216.415 89.0176 217.214C88.4533 218.013 87.646 218.609 86.7154 218.914L86.6614 218.926L62.3774 221.507C61.7172 221.577 61.0496 221.516 60.4132 221.327C59.7768 221.138 59.1842 220.825 58.6696 220.407C58.155 219.988 57.7286 219.471 57.415 218.887C57.1015 218.303 56.9069 217.663 56.8427 217.003C56.7784 216.343 56.8457 215.678 57.0407 215.044C57.2357 214.41 57.5544 213.822 57.9786 213.312C58.4027 212.802 58.9238 212.381 59.5119 212.073C60.0999 211.766 60.7432 211.577 61.4045 211.519L78.7153 209.997L81.709 184.142C81.5132 183.969 81.3298 183.782 81.1602 183.584C80.2215 182.475 79.7292 181.057 79.7789 179.606C79.8285 178.155 80.4166 176.775 81.4288 175.732C82.4411 174.69 83.8053 174.06 85.2565 173.965C86.7078 173.871 88.1425 174.318 89.2821 175.22Z" fill="#A0616A"/>
<path d="M78.7055 366.065H85.2396L88.3476 340.908H78.7043L78.7055 366.065Z" fill="#A0616A"/>
<path d="M77.0391 363.935L89.9062 363.935C90.9831 363.935 92.0499 364.147 93.0448 364.558C94.0396 364.969 94.9436 365.572 95.7051 366.332C96.4665 367.092 97.0705 367.995 97.4826 368.988C97.8947 369.981 98.1068 371.045 98.1068 372.12V372.386L77.0394 372.387L77.0391 363.935Z" fill="#B6B6B6"/>
<path d="M13.7642 357.047L19.3781 360.384L34.9426 340.356L26.6567 335.431L13.7642 357.047Z" fill="#A0616A"/>
<path d="M13.4234 354.366L24.4793 360.937C25.4046 361.487 26.2127 362.214 26.8567 363.076C27.5006 363.937 27.9683 364.917 28.233 365.959C28.4977 367.001 28.5542 368.085 28.3993 369.148C28.2443 370.212 27.881 371.235 27.3301 372.159L27.1938 372.387L9.09204 361.628L13.4234 354.366Z" fill="#B6B6B6"/>
<path d="M86.7811 357.179H79.4648C78.8724 357.18 78.3006 356.962 77.8601 356.566C77.4197 356.171 77.1417 355.626 77.0801 355.038L69.7042 285.828C69.6856 285.653 69.61 285.49 69.4893 285.363C69.3685 285.236 69.2092 285.152 69.0359 285.124C68.8626 285.096 68.6849 285.126 68.5304 285.209C68.3758 285.292 68.2529 285.424 68.1806 285.583L54.8743 314.995L31.3162 353.342C31.0113 353.833 30.5392 354.199 29.9864 354.371C29.4336 354.544 28.837 354.512 28.3059 354.281L18.8947 350.148C18.5835 350.011 18.305 349.81 18.0776 349.557C17.8503 349.305 17.6793 349.007 17.5759 348.684C17.4726 348.36 17.4392 348.019 17.4782 347.682C17.5171 347.344 17.6274 347.019 17.8017 346.728L39.4581 310.531L46.0999 280.032C44.011 266.806 52.9662 247.143 53.057 246.945L53.1014 246.849L77.7689 237.225L77.8926 237.376C87.6207 269.244 93.5486 303.539 89.1716 354.986C89.1177 355.583 88.8429 356.138 88.4009 356.544C87.9589 356.949 87.3814 357.176 86.7811 357.179Z" fill="#B6B6B6"/>
<path d="M52.1077 250.072L51.9928 249.831C51.9379 249.715 46.4529 238.167 42.2246 225.825C41.412 223.438 41.1048 220.909 41.3225 218.397C41.5402 215.886 42.278 213.447 43.4892 211.235C44.7161 209 46.3947 207.044 48.4185 205.491C50.4423 203.937 52.7673 202.82 55.2461 202.21C59.5494 201.181 64.0801 201.729 68.0127 203.754C71.9453 205.78 75.0181 209.148 76.6712 213.246C80.0251 221.618 78.9562 230.554 77.9503 237.582L77.9303 237.722L77.802 237.784L52.1077 250.072Z" fill="#DB6060"/>
<path d="M73.018 176.833H52.2334V167.789C56.7954 165.98 61.2595 164.441 63.958 167.789C66.3609 167.789 68.6653 168.742 70.3644 170.438C72.0634 172.134 73.018 174.434 73.018 176.833Z" fill="#B861E0"/>
<path d="M51.0825 166.193C38.6571 166.193 35.1792 181.74 35.1792 190.511C35.1792 195.403 37.3953 197.152 40.8776 197.744L42.1074 191.197L44.9878 198.026C45.966 198.031 46.9936 198.012 48.059 197.992L49.0356 195.985L51.2134 197.956C59.9359 197.969 66.9856 199.238 66.9856 190.511C66.9856 181.74 63.9355 166.193 51.0825 166.193Z" fill="#B861E0"/>
<path d="M109.024 373H0.564893C0.415074 373 0.271391 372.941 0.165453 372.835C0.0595149 372.729 0 372.586 0 372.436C0 372.287 0.0595149 372.143 0.165453 372.037C0.271391 371.932 0.415074 371.872 0.564893 371.872H109.024C109.174 371.872 109.318 371.932 109.424 372.037C109.53 372.143 109.589 372.287 109.589 372.436C109.589 372.586 109.53 372.729 109.424 372.835C109.318 372.941 109.174 373 109.024 373Z" fill="#CCCCCC"/>
<path d="M111.064 187.479H86.7735C85.3507 187.478 83.9867 186.913 82.9806 185.908C81.9745 184.904 81.4086 183.542 81.407 182.122V157.875C81.4086 156.455 81.9745 155.093 82.9806 154.089C83.9867 153.084 85.3507 152.519 86.7735 152.518H111.064C112.487 152.519 113.851 153.084 114.857 154.089C115.863 155.093 116.429 156.455 116.43 157.875V182.122C116.429 183.542 115.863 184.904 114.857 185.908C113.851 186.913 112.487 187.478 111.064 187.479Z" fill="white"/>
<path d="M111.064 187.479H86.7735C85.3507 187.478 83.9867 186.913 82.9806 185.908C81.9745 184.904 81.4086 183.542 81.407 182.122V157.875C81.4086 156.455 81.9745 155.093 82.9806 154.089C83.9867 153.084 85.3507 152.519 86.7735 152.518H111.064C112.487 152.519 113.851 153.084 114.857 154.089C115.863 155.093 116.429 156.455 116.43 157.875V182.122C116.429 183.542 115.863 184.904 114.857 185.908C113.851 186.913 112.487 187.478 111.064 187.479ZM86.7735 153.646C85.6502 153.647 84.5733 154.093 83.7791 154.886C82.9848 155.679 82.538 156.754 82.5368 157.875V182.122C82.538 183.243 82.9848 184.318 83.7791 185.111C84.5733 185.904 85.6502 186.35 86.7735 186.351H111.064C112.187 186.35 113.264 185.904 114.058 185.111C114.853 184.318 115.299 183.243 115.301 182.122V157.875C115.299 156.754 114.853 155.679 114.058 154.886C113.264 154.093 112.187 153.647 111.064 153.646H86.7735Z" fill="#3F3D56"/>
<path d="M106.827 177.611H91.0101C90.5608 177.611 90.13 177.432 89.8123 177.115C89.4946 176.798 89.3159 176.368 89.3154 175.919V164.078C89.3159 163.629 89.4946 163.199 89.8123 162.882C90.13 162.565 90.5608 162.386 91.0101 162.386H95.4628C95.7524 162.385 96.0374 162.458 96.2902 162.599C96.5431 162.74 96.7552 162.944 96.9062 163.191L98.148 165.205H106.827C107.276 165.206 107.707 165.384 108.025 165.701C108.343 166.019 108.521 166.449 108.522 166.897V175.919C108.521 176.368 108.343 176.798 108.025 177.115C107.707 177.432 107.276 177.611 106.827 177.611Z" fill="#1FC1AE"/>
<path d="M106.313 183.593C106.392 183.738 106.465 183.886 106.532 184.039C106.866 184.793 107.037 185.609 107.033 186.434C107.03 187.259 106.852 188.073 106.511 188.824C106.17 189.575 105.674 190.246 105.055 190.793C104.436 191.339 103.709 191.749 102.92 191.995C102.737 192.051 102.551 192.098 102.362 192.136L91.5731 219.995C91.2164 220.905 90.5752 221.677 89.7445 222.195C88.9138 222.713 87.938 222.949 86.9618 222.87L86.9076 222.86L63.5229 215.832C62.8871 215.641 62.2955 215.326 61.7823 214.906C61.2691 214.485 60.8445 213.967 60.533 213.382C60.2214 212.797 60.0292 212.155 59.9672 211.495C59.9053 210.836 59.975 210.17 60.1722 209.537C60.3694 208.904 60.6903 208.317 61.1163 207.808C61.5423 207.3 62.065 206.881 62.6542 206.575C63.2433 206.269 63.8873 206.083 64.549 206.027C65.2106 205.972 65.8767 206.047 66.5089 206.25L83.0548 211.553L95.8646 188.883C95.7514 188.648 95.6549 188.405 95.5758 188.156C95.1418 186.771 95.2392 185.273 95.849 183.955C96.4588 182.637 97.5375 181.593 98.8756 181.024C100.214 180.455 101.716 180.403 103.09 180.878C104.464 181.353 105.613 182.321 106.313 183.593Z" fill="#A0616A"/>
</g>
<defs>
<clipPath id="clip0_31_449">
<rect width="495" height="373" fill="white"/>
</clipPath>
</defs>
</svg>
