<svg width="50" height="50" viewBox="0 0 50 50" fill="none" xmlns="http://www.w3.org/2000/svg">
<path d="M24.9981 15.3688C22.4432 15.3688 19.9929 16.3837 18.1863 18.1903C16.3797 19.9969 15.3647 22.4472 15.3647 25.0021C15.3647 27.557 16.3797 30.0073 18.1863 31.8139C19.9929 33.6205 22.4432 34.6354 24.9981 34.6354C27.553 34.6354 30.0033 33.6205 31.8099 31.8139C33.6165 30.0073 34.6314 27.557 34.6314 25.0021C34.6314 22.4472 33.6165 19.9969 31.8099 18.1903C30.0033 16.3837 27.553 15.3688 24.9981 15.3688ZM24.9981 31.2584C23.3383 31.2584 21.7464 30.599 20.5728 29.4253C19.3991 28.2517 18.7397 26.6598 18.7397 25C18.7397 23.3402 19.3991 21.7484 20.5728 20.5747C21.7464 19.4011 23.3383 18.7417 24.9981 18.7417C26.6579 18.7417 28.2497 19.4011 29.4234 20.5747C30.5971 21.7484 31.2564 23.3402 31.2564 25C31.2564 26.6598 30.5971 28.2517 29.4234 29.4253C28.2497 30.599 26.6579 31.2584 24.9981 31.2584Z" fill="#B861E0"/>
<path d="M35.0124 17.2605C36.2528 17.2605 37.2583 16.255 37.2583 15.0146C37.2583 13.7743 36.2528 12.7688 35.0124 12.7688C33.7721 12.7688 32.7666 13.7743 32.7666 15.0146C32.7666 16.255 33.7721 17.2605 35.0124 17.2605Z" fill="#B861E0"/>
<path d="M42.7773 12.7312C42.295 11.4858 41.558 10.3547 40.6134 9.4105C39.6688 8.46628 38.5375 7.72969 37.2919 7.24788C35.8343 6.7007 34.2943 6.40484 32.7377 6.37288C30.7315 6.28538 30.0961 6.26038 25.0086 6.26038C19.9211 6.26038 19.269 6.26038 17.2794 6.37288C15.724 6.4032 14.1851 6.69913 12.7294 7.24788C11.4834 7.72913 10.3518 8.46552 9.40717 9.40981C8.46253 10.3541 7.7257 11.4854 7.24398 12.7312C6.6967 14.1887 6.40151 15.7288 6.37106 17.2854C6.28148 19.2895 6.25439 19.925 6.25439 25.0145C6.25439 30.102 6.25439 30.75 6.37106 32.7437C6.40231 34.302 6.69606 35.8395 7.24398 37.3C7.72706 38.5453 8.46459 39.6762 9.40947 40.6203C10.3543 41.5645 11.4858 42.3012 12.7315 42.7833C14.1845 43.3524 15.7239 43.6695 17.2836 43.7208C19.2898 43.8083 19.9252 43.8354 25.0127 43.8354C30.1002 43.8354 30.7523 43.8354 32.7419 43.7208C34.2984 43.6891 35.8382 43.394 37.2961 42.8479C38.5414 42.3649 39.6724 41.6277 40.6168 40.6832C41.5613 39.7388 42.2985 38.6078 42.7815 37.3625C43.3294 35.9041 43.6231 34.3666 43.6544 32.8083C43.744 30.8041 43.7711 30.1687 43.7711 25.0791C43.7711 19.9895 43.7711 19.3437 43.6544 17.35C43.6301 15.7714 43.3334 14.2088 42.7773 12.7312ZM40.2398 32.5895C40.2264 33.7902 40.0072 34.9796 39.5919 36.1062C39.279 36.9163 38.8001 37.652 38.1858 38.266C37.5715 38.8799 36.8356 39.3584 36.0252 39.6708C34.9111 40.0842 33.7343 40.3034 32.5461 40.3187C30.5669 40.4104 30.0086 40.4333 24.9336 40.4333C19.8544 40.4333 19.3356 40.4333 17.319 40.3187C16.1313 40.3042 14.9551 40.085 13.8419 39.6708C13.0287 39.3603 12.2898 38.8827 11.6729 38.2686C11.056 37.6546 10.5749 36.9179 10.2606 36.1062C9.85116 34.9917 9.63213 33.8163 9.61273 32.6291C9.52314 30.65 9.50231 30.0916 9.50231 25.0166C9.50231 19.9395 9.50231 19.4208 9.61273 17.402C9.62619 16.2021 9.84534 15.0133 10.2606 13.8875C10.8961 12.2437 12.1981 10.95 13.8419 10.3208C14.9556 9.90858 16.1315 9.68947 17.319 9.67288C19.3002 9.58329 19.8565 9.55829 24.9336 9.55829C30.0106 9.55829 30.5315 9.55829 32.5461 9.67288C33.7344 9.68717 34.9114 9.90636 36.0252 10.3208C36.8355 10.6339 37.5714 11.1129 38.1856 11.7271C38.7998 12.3413 39.2788 13.0772 39.5919 13.8875C40.0014 15.0019 40.2204 16.1774 40.2398 17.3645C40.3294 19.3458 40.3523 19.902 40.3523 24.9791C40.3523 30.0541 40.3523 30.6 40.2627 32.5916H40.2398V32.5895Z" fill="#B861E0"/>
</svg>
