<svg width="50" height="50" viewBox="0 0 50 50" fill="none" xmlns="http://www.w3.org/2000/svg">
<path d="M40.9019 16.6604C40.929 17.025 40.929 17.3875 40.929 17.75C40.929 28.8438 32.4853 41.6271 17.054 41.6271C12.2998 41.6271 7.88317 40.25 4.1665 37.8583C4.8415 37.9354 5.4915 37.9625 6.19359 37.9625C9.97065 37.9716 13.6408 36.7086 16.6123 34.3771C14.8611 34.3454 13.1635 33.7676 11.7566 32.7245C10.3496 31.6813 9.30355 30.2248 8.76442 28.5583C9.28317 28.6354 9.804 28.6875 10.3498 28.6875C11.1019 28.6875 11.8582 28.5833 12.5603 28.4021C10.6598 28.0184 8.95082 26.9882 7.72404 25.4869C6.49726 23.9855 5.82836 22.1055 5.83109 20.1667V20.0625C6.94984 20.6854 8.24775 21.075 9.62275 21.1271C8.47086 20.3616 7.52634 19.323 6.87346 18.1037C6.22059 16.8845 5.87966 15.5226 5.88109 14.1396C5.88109 12.5813 6.29567 11.1521 7.02275 9.90626C9.13138 12.5001 11.7613 14.622 14.7422 16.1347C17.7231 17.6474 20.9885 18.5171 24.3269 18.6875C24.1978 18.0625 24.1186 17.4146 24.1186 16.7646C24.118 15.6624 24.3347 14.571 24.7562 13.5526C25.1778 12.5342 25.7959 11.6089 26.5752 10.8296C27.3546 10.0502 28.2799 9.43211 29.2983 9.01059C30.3166 8.58906 31.4081 8.37238 32.5103 8.37293C34.9269 8.37293 37.1082 9.38543 38.6415 11.0229C40.5202 10.6596 42.3218 9.9738 43.9665 8.99584C43.3403 10.935 42.0285 12.5794 40.2769 13.6208C41.9431 13.4308 43.5716 12.9926 45.1082 12.3208C43.9605 13.994 42.5384 15.4611 40.9019 16.6604Z" fill="#1FC1AE"/>
</svg>
