<svg width="309" height="79" viewBox="0 0 309 79" fill="none" xmlns="http://www.w3.org/2000/svg">
<path d="M3.85149 40.9919C6.65257 39.7314 8.05311 36.8836 8.05311 32.4486V22.2247C8.05311 20.2172 8.58998 18.4665 9.66373 16.9726C10.7375 15.4787 11.8112 14.7318 12.885 14.7318H18.067V19.9138H15.7561C14.589 19.9138 14.0054 21.0809 14.0054 23.4151V33.359C14.0054 37.794 12.5815 41.0386 9.73375 43.0927C10.8075 43.6529 11.7879 44.82 12.6749 46.5941C13.5619 48.3681 14.0054 50.3989 14.0054 52.6864V62.7003C14.0054 65.0345 14.589 66.2016 15.7561 66.2016H18.067V71.3136H12.885C11.8112 71.3136 10.7375 70.5666 9.66373 69.0727C8.58998 67.5788 8.05311 65.8515 8.05311 63.8907V53.5968C8.05311 49.1617 6.65257 46.3373 3.85149 45.1235V40.9919ZM62.5675 39.3813V40.4317C62.5675 47.201 60.8402 52.6864 57.3855 56.888C53.9308 61.043 49.1923 63.1204 43.17 63.1204C37.3344 63.1204 32.5026 60.9729 28.6744 56.6779C24.8463 52.383 22.9322 47.1309 22.9322 40.9219C22.9322 34.4794 24.8696 29.1107 28.7444 24.8157C32.666 20.5207 37.6612 18.3732 43.7302 18.3732C51.5732 18.3732 57.1754 21.7578 60.5367 28.5271L54.0942 31.9584C51.9467 27.0565 48.422 24.6056 43.5201 24.6056C39.7387 24.6056 36.6108 26.2395 34.1365 29.5075C31.6622 32.7287 30.4251 36.5569 30.4251 40.9919C30.4251 45.4269 31.6389 49.1851 34.0665 52.2662C36.4941 55.3474 39.6453 56.888 43.5201 56.888C46.8348 56.888 49.4724 55.7209 51.4332 53.3867C53.3939 51.0524 54.3743 48.2747 54.3743 45.0535H44.2204V39.3813H62.5675ZM93.7804 55.9077V62H65.2094L75.9935 48.3447C81.1288 41.9956 84.14 38.0274 85.027 36.4401C85.9607 34.8062 86.4275 33.4757 86.4275 32.4486C86.4742 32.1685 86.4976 31.8884 86.4976 31.6083C86.4976 29.7409 85.8673 28.0836 84.6068 26.6364C83.393 25.1891 81.7824 24.4655 79.775 24.4655C77.7675 24.4655 76.1803 25.2825 75.0131 26.9165C73.8927 28.5504 73.3325 30.5345 73.3325 32.8688H65.7696C65.7696 28.6671 67.0067 25.2125 69.481 22.5048C72.002 19.7504 75.41 18.3732 79.705 18.3732C83.5798 18.3732 86.8477 19.6803 89.5087 22.2947C92.1698 24.909 93.5003 28.177 93.5003 32.0985C93.5003 35.7866 90.6758 40.9219 85.027 47.5044L77.8142 55.9077H93.7804ZM114.217 45.1235C111.416 46.3373 110.016 49.1617 110.016 53.5968V63.8907C110.016 65.9449 109.455 67.6955 108.335 69.1428C107.261 70.59 106.234 71.3136 105.254 71.3136H100.072V66.2016H102.313C103.48 66.2016 104.063 65.0345 104.063 62.7003V52.6864C104.063 47.8779 105.487 44.68 108.335 43.0927C105.487 40.9919 104.063 37.7473 104.063 33.359V23.4151C104.063 21.0809 103.48 19.9138 102.313 19.9138H100.072V14.7318H105.254C106.234 14.7318 107.261 15.4554 108.335 16.9026C109.455 18.3498 110.016 20.1239 110.016 22.2247V32.4486C110.016 36.8836 111.416 39.7314 114.217 40.9919V45.1235Z" fill="url(#paint0_linear_31_122)"/>
<path d="M138.641 38.7673H133.102V23.1415H138.687C140.259 23.1415 141.612 23.4543 142.746 24.0799C143.881 24.7005 144.753 25.5932 145.363 26.758C145.979 27.9228 146.287 29.3165 146.287 30.9391C146.287 32.5668 145.979 33.9656 145.363 35.1355C144.753 36.3054 143.876 37.2032 142.731 37.8289C141.592 38.4545 140.228 38.7673 138.641 38.7673ZM136.406 35.9367H138.504C139.481 35.9367 140.302 35.7637 140.969 35.4178C141.64 35.0669 142.144 34.5252 142.479 33.7927C142.82 33.0551 142.99 32.104 142.99 30.9391C142.99 29.7845 142.82 28.8409 142.479 28.1085C142.144 27.376 141.643 26.8368 140.976 26.491C140.31 26.1451 139.488 25.9721 138.512 25.9721H136.406V35.9367ZM156.55 23.1415V38.7673H153.246V23.1415H156.55ZM172.256 27.6354C172.195 27.02 171.933 26.5418 171.47 26.201C171.008 25.8602 170.379 25.6898 169.586 25.6898C169.047 25.6898 168.591 25.7661 168.22 25.9187C167.849 26.0662 167.564 26.2722 167.366 26.5367C167.172 26.8012 167.076 27.1013 167.076 27.4371C167.065 27.7168 167.124 27.961 167.251 28.1695C167.383 28.3781 167.564 28.5586 167.793 28.7112C168.022 28.8587 168.286 28.9885 168.586 29.1004C168.886 29.2072 169.207 29.2987 169.548 29.375L170.952 29.7107C171.633 29.8633 172.259 30.0668 172.829 30.3211C173.398 30.5755 173.892 30.8883 174.309 31.2596C174.726 31.6309 175.049 32.0684 175.278 32.5719C175.512 33.0755 175.631 33.6528 175.636 34.3039C175.631 35.2602 175.387 36.0893 174.904 36.7912C174.426 37.4881 173.734 38.0298 172.829 38.4164C171.928 38.7979 170.842 38.9886 169.571 38.9886C168.309 38.9886 167.21 38.7953 166.275 38.4087C165.344 38.0222 164.616 37.4499 164.092 36.692C163.574 35.929 163.301 34.9855 163.276 33.8614H166.473C166.509 34.3853 166.659 34.8227 166.923 35.1737C167.193 35.5196 167.551 35.7815 167.999 35.9596C168.452 36.1325 168.963 36.219 169.532 36.219C170.092 36.219 170.578 36.1376 170.99 35.9748C171.407 35.8121 171.73 35.5857 171.959 35.2958C172.188 35.0058 172.302 34.6727 172.302 34.2963C172.302 33.9453 172.198 33.6503 171.989 33.4112C171.786 33.1721 171.486 32.9687 171.089 32.8008C170.697 32.633 170.217 32.4804 169.647 32.343L167.945 31.9158C166.628 31.5953 165.588 31.0943 164.825 30.4127C164.062 29.7311 163.683 28.813 163.688 27.6583C163.683 26.7122 163.935 25.8857 164.443 25.1786C164.957 24.4716 165.662 23.9197 166.557 23.523C167.452 23.1262 168.469 22.9278 169.609 22.9278C170.768 22.9278 171.781 23.1262 172.645 23.523C173.515 23.9197 174.192 24.4716 174.675 25.1786C175.158 25.8857 175.407 26.7046 175.423 27.6354H172.256ZM182.37 38.7673V23.1415H192.9V25.8653H185.674V29.5887H192.358V32.3125H185.674V36.0435H192.93V38.7673H182.37ZM213.108 23.1415V38.7673H210.254L203.456 28.9325H203.342V38.7673H200.038V23.1415H202.937L209.682 32.9687H209.82V23.1415H213.108ZM204.402 21.6994L202.594 21.6766C202.594 20.705 202.833 19.9598 203.311 19.441C203.795 18.9222 204.382 18.6602 205.074 18.6551C205.43 18.6551 205.735 18.7136 205.989 18.8306C206.249 18.9425 206.48 19.0748 206.684 19.2274C206.892 19.38 207.091 19.5148 207.279 19.6318C207.467 19.7437 207.67 19.7996 207.889 19.7996C208.184 19.7945 208.408 19.6852 208.561 19.4715C208.718 19.2528 208.797 18.968 208.797 18.617L210.575 18.6704C210.565 19.6318 210.321 20.3744 209.842 20.8983C209.364 21.4171 208.782 21.6791 208.095 21.6842C207.714 21.6842 207.393 21.6282 207.134 21.5163C206.88 21.3993 206.656 21.2671 206.462 21.1196C206.269 20.967 206.081 20.8322 205.898 20.7152C205.715 20.5982 205.509 20.5397 205.28 20.5397C205.015 20.5397 204.802 20.644 204.639 20.8525C204.481 21.0611 204.402 21.3434 204.402 21.6994ZM234.709 30.9544C234.709 32.6584 234.386 34.1081 233.74 35.3034C233.099 36.4987 232.224 37.4118 231.115 38.0425C230.011 38.6681 228.77 38.981 227.392 38.981C226.003 38.981 224.757 38.6656 223.653 38.0349C222.549 37.4041 221.677 36.4911 221.036 35.2958C220.395 34.1004 220.075 32.6533 220.075 30.9544C220.075 29.2504 220.395 27.8007 221.036 26.6054C221.677 25.4101 222.549 24.4996 223.653 23.8739C224.757 23.2432 226.003 22.9278 227.392 22.9278C228.77 22.9278 230.011 23.2432 231.115 23.8739C232.224 24.4996 233.099 25.4101 233.74 26.6054C234.386 27.8007 234.709 29.2504 234.709 30.9544ZM231.359 30.9544C231.359 29.8506 231.194 28.9198 230.863 28.1619C230.538 27.404 230.078 26.8292 229.482 26.4376C228.887 26.0459 228.19 25.8501 227.392 25.8501C226.593 25.8501 225.896 26.0459 225.301 26.4376C224.706 26.8292 224.243 27.404 223.913 28.1619C223.587 28.9198 223.424 29.8506 223.424 30.9544C223.424 32.0582 223.587 32.989 223.913 33.7469C224.243 34.5048 224.706 35.0796 225.301 35.4713C225.896 35.8629 226.593 36.0588 227.392 36.0588C228.19 36.0588 228.887 35.8629 229.482 35.4713C230.078 35.0796 230.538 34.5048 230.863 33.7469C231.194 32.989 231.359 32.0582 231.359 30.9544ZM254.67 38.7673L250.199 23.1415H253.808L256.394 33.9987H256.524L259.378 23.1415H262.468L265.314 34.0216H265.451L268.038 23.1415H271.646L267.175 38.7673H263.956L260.98 28.551H260.858L257.89 38.7673H254.67ZM277.927 38.7673V23.1415H288.456V25.8653H281.23V29.5887H287.914V32.3125H281.23V36.0435H288.486V38.7673H277.927ZM295.594 38.7673V23.1415H301.851C303 23.1415 303.959 23.3119 304.727 23.6527C305.495 23.9935 306.073 24.4665 306.459 25.0718C306.846 25.672 307.039 26.3638 307.039 27.1471C307.039 27.7575 306.917 28.2941 306.673 28.757C306.429 29.2148 306.093 29.5912 305.666 29.8862C305.243 30.1762 304.76 30.3822 304.216 30.5042V30.6568C304.811 30.6823 305.368 30.8501 305.887 31.1604C306.411 31.4707 306.836 31.9056 307.161 32.4651C307.487 33.0195 307.649 33.6808 307.649 34.4489C307.649 35.278 307.443 36.0181 307.031 36.6691C306.624 37.3151 306.022 37.8263 305.223 38.2027C304.425 38.5791 303.44 38.7673 302.27 38.7673H295.594ZM298.898 36.0664H301.591C302.512 36.0664 303.183 35.8909 303.606 35.5399C304.028 35.1839 304.239 34.7108 304.239 34.1208C304.239 33.6884 304.135 33.3069 303.926 32.9763C303.718 32.6457 303.42 32.3863 303.033 32.1981C302.652 32.0099 302.197 31.9158 301.668 31.9158H298.898V36.0664ZM298.898 29.6802H301.347C301.8 29.6802 302.202 29.6014 302.553 29.4437C302.909 29.2809 303.189 29.052 303.392 28.757C303.601 28.462 303.705 28.1085 303.705 27.6965C303.705 27.1319 303.504 26.6766 303.102 26.3307C302.705 25.9849 302.141 25.8119 301.408 25.8119H298.898V29.6802ZM135.905 49.0675L133.797 61.7673H132.637L134.745 49.0675H135.905ZM140.431 55.8143L139.445 61.7673H138.341L139.928 52.2424H141.001L140.753 53.7369H140.852C141.15 53.2491 141.561 52.8584 142.086 52.5649C142.615 52.2672 143.229 52.1184 143.928 52.1184C144.565 52.1184 145.102 52.2528 145.54 52.5215C145.983 52.7861 146.297 53.1767 146.483 53.6935C146.673 54.2103 146.706 54.8448 146.582 55.5972L145.546 61.7673H144.443L145.46 55.6654C145.588 54.8882 145.474 54.2723 145.119 53.8175C144.767 53.3586 144.224 53.1292 143.488 53.1292C142.987 53.1292 142.522 53.2367 142.092 53.4516C141.667 53.6666 141.307 53.9767 141.013 54.3818C140.72 54.7828 140.526 55.2603 140.431 55.8143ZM155.189 52.2424L155.034 53.2036H150.483L150.644 52.2424H155.189ZM152.436 49.9604H153.546L151.996 59.2807C151.93 59.6776 151.946 59.9897 152.045 60.2171C152.145 60.4403 152.298 60.5995 152.504 60.6945C152.711 60.7855 152.938 60.831 153.186 60.831C153.331 60.831 153.455 60.8227 153.558 60.8062C153.666 60.7855 153.761 60.7648 153.844 60.7442L153.924 61.7425C153.804 61.7839 153.662 61.8211 153.496 61.8541C153.331 61.8914 153.133 61.91 152.901 61.91C152.496 61.91 152.122 61.8211 151.779 61.6433C151.436 61.4655 151.175 61.201 150.997 60.8496C150.82 60.4982 150.772 60.062 150.855 59.5411L152.436 49.9604ZM161.229 61.9658C160.341 61.9658 159.607 61.7591 159.028 61.3457C158.449 60.9281 158.044 60.3514 157.813 59.6155C157.581 58.8756 157.546 58.0239 157.707 57.0607C157.868 56.1016 158.187 55.25 158.662 54.5058C159.138 53.7576 159.725 53.1726 160.423 52.7509C161.122 52.3251 161.881 52.1122 162.699 52.1122C163.216 52.1122 163.7 52.2073 164.15 52.3975C164.601 52.5835 164.983 52.8708 165.297 53.2594C165.616 53.6439 165.837 54.1296 165.961 54.7167C166.085 55.2996 166.081 55.99 165.948 56.7878L165.862 57.3335H158.42L158.575 56.36H164.894C164.998 55.7481 164.969 55.1983 164.807 54.7105C164.646 54.2227 164.371 53.8361 163.983 53.5509C163.598 53.2615 163.121 53.1168 162.55 53.1168C161.967 53.1168 161.415 53.2801 160.895 53.6067C160.378 53.9333 159.94 54.3591 159.58 54.8841C159.224 55.405 158.995 55.961 158.892 56.5522L158.768 57.2839C158.635 58.0901 158.652 58.766 158.817 59.3117C158.983 59.8533 159.282 60.2625 159.716 60.5395C160.15 60.8165 160.706 60.955 161.384 60.955C161.839 60.955 162.251 60.8847 162.618 60.7442C162.986 60.6036 163.307 60.4155 163.58 60.1799C163.852 59.9401 164.072 59.6776 164.237 59.3923L165.223 59.7334C165.012 60.1344 164.714 60.5044 164.33 60.8434C163.95 61.1824 163.497 61.4552 162.972 61.6619C162.451 61.8645 161.87 61.9658 161.229 61.9658ZM171.985 65.5376C171.336 65.5376 170.78 65.4529 170.317 65.2834C169.854 65.118 169.478 64.8906 169.189 64.6012C168.903 64.3119 168.695 63.9873 168.562 63.6277L169.567 63.0386C169.658 63.2783 169.796 63.514 169.982 63.7455C170.169 63.977 170.431 64.1672 170.77 64.316C171.109 64.469 171.553 64.5454 172.103 64.5454C172.942 64.5454 173.664 64.3325 174.267 63.9067C174.871 63.485 175.247 62.8319 175.396 61.9472L175.731 59.8016H175.632C175.462 60.091 175.235 60.3804 174.95 60.6697C174.664 60.955 174.311 61.1927 173.889 61.3829C173.472 61.573 172.978 61.6681 172.407 61.6681C171.646 61.6681 171.002 61.48 170.472 61.1038C169.943 60.7276 169.569 60.1902 169.35 59.4915C169.131 58.7887 169.104 57.9516 169.269 56.9801C169.426 56.0168 169.728 55.1694 170.175 54.4376C170.625 53.7059 171.179 53.1354 171.837 52.7261C172.498 52.3168 173.222 52.1122 174.007 52.1122C174.59 52.1122 175.057 52.2156 175.408 52.4223C175.76 52.6248 176.026 52.877 176.208 53.1788C176.394 53.4806 176.529 53.7741 176.611 54.0594H176.723L177.021 52.2424H178.1L176.487 62.0154C176.351 62.8215 176.07 63.485 175.644 64.0059C175.218 64.5268 174.689 64.9113 174.057 65.1593C173.428 65.4115 172.738 65.5376 171.985 65.5376ZM172.655 60.6573C173.267 60.6573 173.817 60.5106 174.305 60.2171C174.797 59.9194 175.208 59.4957 175.539 58.9458C175.874 58.3919 176.103 57.7304 176.227 56.9615C176.351 56.2173 176.345 55.558 176.208 54.9833C176.076 54.4046 175.818 53.9498 175.433 53.6191C175.053 53.2842 174.553 53.1168 173.933 53.1168C173.292 53.1168 172.725 53.2884 172.233 53.6315C171.746 53.9746 171.343 54.4376 171.024 55.0205C170.71 55.5993 170.493 56.2463 170.373 56.9615C170.257 57.6891 170.262 58.3319 170.386 58.89C170.514 59.444 170.766 59.8781 171.142 60.1923C171.518 60.5023 172.023 60.6573 172.655 60.6573ZM180.831 61.7673L182.419 52.2424H183.492L183.244 53.7059H183.324C183.589 53.2263 183.984 52.8398 184.509 52.5463C185.038 52.2486 185.602 52.0998 186.202 52.0998C186.293 52.0998 186.394 52.1019 186.506 52.106C186.617 52.106 186.71 52.1101 186.785 52.1184L186.592 53.2408C186.543 53.2325 186.456 53.2201 186.332 53.2036C186.212 53.1871 186.078 53.1788 185.929 53.1788C185.433 53.1788 184.974 53.2842 184.552 53.4951C184.135 53.7018 183.783 53.9891 183.498 54.357C183.217 54.7249 183.035 55.1446 182.952 55.6158L181.935 61.7673H180.831ZM191.105 61.9844C190.531 61.9844 190.024 61.8728 189.586 61.6495C189.148 61.4221 188.821 61.0955 188.606 60.6697C188.395 60.2398 188.338 59.7189 188.433 59.1071C188.515 58.6358 188.672 58.2389 188.904 57.9164C189.14 57.594 189.437 57.3294 189.797 57.1227C190.157 56.9119 190.57 56.7465 191.037 56.6266C191.504 56.5067 192.013 56.4158 192.563 56.3538C193.1 56.2876 193.559 56.2297 193.939 56.1801C194.32 56.1305 194.615 56.052 194.826 55.9445C195.037 55.837 195.163 55.6634 195.204 55.4236L195.242 55.2004C195.349 54.5513 195.25 54.0408 194.944 53.6687C194.638 53.2925 194.125 53.1044 193.406 53.1044C192.72 53.1044 192.124 53.2573 191.62 53.5633C191.12 53.8651 190.748 54.2185 190.504 54.6237L189.524 54.2454C189.822 53.7245 190.188 53.309 190.622 52.999C191.056 52.6848 191.521 52.4595 192.017 52.323C192.513 52.1825 193.003 52.1122 193.487 52.1122C193.85 52.1122 194.22 52.1598 194.597 52.2548C194.973 52.3499 195.31 52.5153 195.607 52.7509C195.909 52.9824 196.13 53.307 196.271 53.7245C196.416 54.1379 196.436 54.6629 196.333 55.2996L195.254 61.7673H194.15L194.404 60.2605H194.336C194.163 60.5416 193.923 60.8144 193.617 61.079C193.315 61.3436 192.953 61.5606 192.532 61.7301C192.11 61.8996 191.635 61.9844 191.105 61.9844ZM191.384 60.9736C191.971 60.9736 192.503 60.8434 192.978 60.5829C193.458 60.3225 193.85 59.9773 194.156 59.5473C194.466 59.1133 194.665 58.6358 194.752 58.1149L194.981 56.7382C194.89 56.8168 194.741 56.8871 194.535 56.9491C194.332 57.0111 194.103 57.0669 193.846 57.1165C193.594 57.162 193.34 57.2013 193.084 57.2343C192.831 57.2674 192.608 57.2963 192.414 57.3211C191.864 57.3873 191.384 57.4906 190.975 57.6312C190.57 57.7718 190.245 57.9661 190.002 58.2141C189.758 58.458 189.605 58.7722 189.543 59.1567C189.448 59.7354 189.574 60.184 189.921 60.5023C190.272 60.8165 190.76 60.9736 191.384 60.9736ZM202.799 49.0675L200.691 61.7673H199.587L201.695 49.0675H202.799ZM214.69 61.941C213.913 61.941 213.256 61.7901 212.718 61.4883C212.185 61.1824 211.801 60.7669 211.565 60.2419C211.333 59.7168 211.273 59.1236 211.385 58.4621C211.464 57.9826 211.633 57.5506 211.894 57.1661C212.154 56.7775 212.499 56.4075 212.929 56.0561C213.363 55.7047 213.874 55.343 214.461 54.9709L216.526 53.6005C217.022 53.2904 217.408 52.9824 217.685 52.6765C217.967 52.3706 218.142 51.9965 218.213 51.5541C218.279 51.1283 218.184 50.748 217.927 50.4131C217.675 50.0741 217.295 49.9046 216.786 49.9046C216.435 49.9046 216.1 49.9935 215.782 50.1713C215.467 50.349 215.203 50.5805 214.988 50.8658C214.773 51.1469 214.639 51.4425 214.585 51.7525C214.539 52.0419 214.568 52.3313 214.672 52.6207C214.775 52.9101 214.928 53.216 215.131 53.5385C215.333 53.8568 215.556 54.2103 215.8 54.5989L220.408 61.7673H219.068L215.038 55.56C214.699 55.035 214.399 54.5678 214.138 54.1586C213.878 53.7493 213.684 53.3545 213.555 52.9742C213.431 52.5897 213.405 52.1784 213.475 51.7401C213.566 51.1986 213.77 50.717 214.089 50.2953C214.411 49.8695 214.814 49.5346 215.298 49.2907C215.786 49.0468 216.317 48.9248 216.892 48.9248C217.479 48.9248 217.969 49.0447 218.361 49.2845C218.754 49.5243 219.035 49.8426 219.205 50.2395C219.378 50.6363 219.424 51.0746 219.341 51.5541C219.246 52.1287 219.012 52.6393 218.64 53.0858C218.272 53.5281 217.772 53.9601 217.14 54.3818L214.56 56.1057C213.845 56.5811 213.334 57.0214 213.028 57.4266C212.727 57.8317 212.553 58.1769 212.507 58.4621C212.437 58.9086 212.483 59.322 212.644 59.7024C212.809 60.0786 213.076 60.3824 213.444 60.6139C213.812 60.8413 214.264 60.9529 214.802 60.9488C215.327 60.9447 215.842 60.8392 216.346 60.6325C216.854 60.4217 217.326 60.122 217.76 59.7334C218.198 59.3448 218.574 58.8797 218.888 58.3381C219.207 57.7966 219.44 57.193 219.589 56.5274L220.662 56.5398C220.53 57.2219 220.344 57.7966 220.104 58.2637C219.864 58.7309 219.614 59.1174 219.354 59.4233C219.097 59.7292 218.874 59.9814 218.684 60.1799C218.626 60.2419 218.564 60.3059 218.498 60.3721C218.432 60.4341 218.368 60.494 218.306 60.5519C217.814 61.0025 217.241 61.3477 216.588 61.5875C215.935 61.8231 215.302 61.941 214.69 61.941ZM241.476 53.0362H240.323C240.311 52.6021 240.224 52.2011 240.062 51.8332C239.901 51.4611 239.676 51.1366 239.387 50.8596C239.097 50.5826 238.752 50.3676 238.351 50.2147C237.954 50.0617 237.51 49.9852 237.018 49.9852C236.207 49.9852 235.432 50.1981 234.692 50.6239C233.952 51.0456 233.316 51.6657 232.782 52.4843C232.249 53.3028 231.885 54.3033 231.691 55.4856C231.497 56.6514 231.528 57.6333 231.784 58.4311C232.04 59.2249 232.46 59.8264 233.043 60.2357C233.63 60.6449 234.318 60.8496 235.108 60.8496C235.612 60.8496 236.096 60.7731 236.559 60.6201C237.022 60.4672 237.448 60.2543 237.836 59.9814C238.225 59.7044 238.566 59.3799 238.859 59.0078C239.153 58.6358 239.38 58.2327 239.542 57.7986H240.707C240.505 58.3815 240.222 58.9252 239.858 59.4295C239.494 59.9297 239.064 60.368 238.568 60.7442C238.076 61.1204 237.532 61.4139 236.937 61.6247C236.346 61.8355 235.718 61.941 235.052 61.941C233.969 61.941 233.053 61.6702 232.305 61.1286C231.561 60.5871 231.032 59.8243 230.717 58.8404C230.407 57.8524 230.364 56.6886 230.587 55.3492C230.806 54.0346 231.226 52.8935 231.846 51.9262C232.47 50.9588 233.235 50.2126 234.14 49.6876C235.046 49.1584 236.03 48.8938 237.092 48.8938C237.77 48.8938 238.378 48.9993 238.915 49.2101C239.453 49.4168 239.91 49.7103 240.286 50.0906C240.666 50.4668 240.958 50.9051 241.16 51.4053C241.363 51.9055 241.468 52.4491 241.476 53.0362ZM243.935 61.7673L245.523 52.2424H246.596L246.348 53.7059H246.428C246.693 53.2263 247.088 52.8398 247.613 52.5463C248.142 52.2486 248.706 52.0998 249.305 52.0998C249.396 52.0998 249.498 52.1019 249.609 52.106C249.721 52.106 249.814 52.1101 249.888 52.1184L249.696 53.2408C249.646 53.2325 249.56 53.2201 249.436 53.2036C249.316 53.1871 249.181 53.1788 249.033 53.1788C248.536 53.1788 248.078 53.2842 247.656 53.4951C247.238 53.7018 246.887 53.9891 246.602 54.357C246.321 54.7249 246.139 55.1446 246.056 55.6158L245.039 61.7673H243.935ZM255.11 61.9658C254.221 61.9658 253.487 61.7591 252.908 61.3457C252.33 60.9281 251.925 60.3514 251.693 59.6155C251.462 58.8756 251.426 58.0239 251.588 57.0607C251.749 56.1016 252.067 55.25 252.543 54.5058C253.018 53.7576 253.605 53.1726 254.304 52.7509C255.002 52.3251 255.761 52.1122 256.58 52.1122C257.096 52.1122 257.58 52.2073 258.031 52.3975C258.481 52.5835 258.864 52.8708 259.178 53.2594C259.496 53.6439 259.717 54.1296 259.841 54.7167C259.965 55.2996 259.961 55.99 259.829 56.7878L259.742 57.3335H252.301L252.456 56.36H258.775C258.878 55.7481 258.849 55.1983 258.688 54.7105C258.527 54.2227 258.252 53.8361 257.863 53.5509C257.479 53.2615 257.001 53.1168 256.431 53.1168C255.848 53.1168 255.296 53.2801 254.775 53.6067C254.258 53.9333 253.82 54.3591 253.46 54.8841C253.105 55.405 252.875 55.961 252.772 56.5522L252.648 57.2839C252.516 58.0901 252.532 58.766 252.698 59.3117C252.863 59.8533 253.163 60.2625 253.597 60.5395C254.031 60.8165 254.587 60.955 255.265 60.955C255.72 60.955 256.131 60.8847 256.499 60.7442C256.867 60.6036 257.187 60.4155 257.46 60.1799C257.733 59.9401 257.952 59.6776 258.117 59.3923L259.103 59.7334C258.893 60.1344 258.595 60.5044 258.21 60.8434C257.83 61.1824 257.377 61.4552 256.852 61.6619C256.331 61.8645 255.751 61.9658 255.11 61.9658ZM265.463 61.9844C264.888 61.9844 264.382 61.8728 263.944 61.6495C263.505 61.4221 263.179 61.0955 262.964 60.6697C262.753 60.2398 262.695 59.7189 262.79 59.1071C262.873 58.6358 263.03 58.2389 263.261 57.9164C263.497 57.594 263.795 57.3294 264.154 57.1227C264.514 56.9119 264.927 56.7465 265.395 56.6266C265.862 56.5067 266.37 56.4158 266.92 56.3538C267.457 56.2876 267.916 56.2297 268.297 56.1801C268.677 56.1305 268.973 56.052 269.183 55.9445C269.394 55.837 269.52 55.6634 269.562 55.4236L269.599 55.2004C269.706 54.5513 269.607 54.0408 269.301 53.6687C268.995 53.2925 268.483 53.1044 267.763 53.1044C267.077 53.1044 266.482 53.2573 265.977 53.5633C265.477 53.8651 265.105 54.2185 264.861 54.6237L263.882 54.2454C264.179 53.7245 264.545 53.309 264.979 52.999C265.413 52.6848 265.878 52.4595 266.374 52.323C266.87 52.1825 267.36 52.1122 267.844 52.1122C268.208 52.1122 268.578 52.1598 268.954 52.2548C269.33 52.3499 269.667 52.5153 269.965 52.7509C270.267 52.9824 270.488 53.307 270.628 53.7245C270.773 54.1379 270.794 54.6629 270.69 55.2996L269.611 61.7673H268.508L268.762 60.2605H268.694C268.52 60.5416 268.28 60.8144 267.974 61.079C267.672 61.3436 267.311 61.5606 266.889 61.7301C266.467 61.8996 265.992 61.9844 265.463 61.9844ZM265.742 60.9736C266.329 60.9736 266.86 60.8434 267.336 60.5829C267.815 60.3225 268.208 59.9773 268.514 59.5473C268.824 59.1133 269.022 58.6358 269.109 58.1149L269.338 56.7382C269.248 56.8168 269.099 56.8871 268.892 56.9491C268.689 57.0111 268.46 57.0669 268.204 57.1165C267.952 57.162 267.697 57.2013 267.441 57.2343C267.189 57.2674 266.966 57.2963 266.771 57.3211C266.221 57.3873 265.742 57.4906 265.333 57.6312C264.927 57.7718 264.603 57.9661 264.359 58.2141C264.115 58.458 263.962 58.7722 263.9 59.1567C263.805 59.7354 263.931 60.184 264.278 60.5023C264.63 60.8165 265.118 60.9736 265.742 60.9736ZM279.284 52.2424L279.129 53.2036H274.577L274.738 52.2424H279.284ZM276.53 49.9604H277.64L276.09 59.2807C276.024 59.6776 276.041 59.9897 276.14 60.2171C276.239 60.4403 276.392 60.5995 276.599 60.6945C276.805 60.7855 277.033 60.831 277.281 60.831C277.425 60.831 277.549 60.8227 277.653 60.8062C277.76 60.7855 277.855 60.7648 277.938 60.7442L278.019 61.7425C277.899 61.7839 277.756 61.8211 277.591 61.8541C277.425 61.8914 277.227 61.91 276.995 61.91C276.59 61.91 276.216 61.8211 275.873 61.6433C275.53 61.4655 275.27 61.201 275.092 60.8496C274.914 60.4982 274.866 60.062 274.949 59.5411L276.53 49.9604ZM281.612 61.7673L283.2 52.2424H284.31L282.722 61.7673H281.612ZM284.155 50.5867C283.923 50.5867 283.727 50.5082 283.566 50.3511C283.409 50.194 283.332 50.0038 283.336 49.7806C283.345 49.5698 283.429 49.3879 283.591 49.2349C283.756 49.0778 283.95 48.9993 284.173 48.9993C284.405 48.9993 284.601 49.0799 284.763 49.2411C284.924 49.3982 285 49.5884 284.992 49.8116C284.988 50.0224 284.903 50.2043 284.738 50.3573C284.572 50.5103 284.378 50.5867 284.155 50.5867ZM295.999 52.2424L290.933 61.7673H289.755L287.863 52.2424H289.011L290.499 60.3101H290.579L294.753 52.2424H295.999ZM301.373 61.9658C300.538 61.9658 299.835 61.7549 299.264 61.3333C298.694 60.9074 298.291 60.3183 298.055 59.5659C297.819 58.8135 297.78 57.9454 297.937 56.9615C298.094 56.0024 298.406 55.159 298.874 54.4314C299.345 53.6997 299.924 53.1313 300.61 52.7261C301.296 52.3168 302.042 52.1122 302.848 52.1122C303.688 52.1122 304.39 52.3251 304.957 52.7509C305.527 53.1767 305.93 53.7658 306.166 54.5182C306.406 55.2706 306.447 56.1409 306.29 57.1289C306.133 58.0839 305.819 58.9252 305.348 59.6528C304.876 60.3762 304.297 60.9426 303.611 61.3519C302.929 61.7611 302.183 61.9658 301.373 61.9658ZM301.385 60.955C302.063 60.955 302.667 60.7752 303.196 60.4155C303.729 60.0517 304.169 59.568 304.517 58.9644C304.864 58.3567 305.097 57.6891 305.217 56.9615C305.329 56.267 305.317 55.6282 305.18 55.0453C305.044 54.4624 304.781 53.9953 304.393 53.6439C304.004 53.2925 303.487 53.1168 302.842 53.1168C302.168 53.1168 301.565 53.3008 301.032 53.6687C300.498 54.0325 300.058 54.5203 299.711 55.1321C299.363 55.7399 299.132 56.4054 299.016 57.1289C298.9 57.8276 298.909 58.4663 299.041 59.045C299.177 59.6238 299.44 60.0868 299.829 60.4341C300.221 60.7814 300.74 60.955 301.385 60.955Z" fill="white"/>
<defs>
<linearGradient id="paint0_linear_31_122" x1="116" y1="43" x2="3.00001" y2="43" gradientUnits="userSpaceOnUse">
<stop stop-color="#B861E0"/>
<stop offset="0.489583" stop-color="#7171E2"/>
<stop offset="1" stop-color="#1FC1AE"/>
</linearGradient>
</defs>
</svg>
