<svg width="131" height="87" viewBox="0 0 131 87" fill="none" xmlns="http://www.w3.org/2000/svg">
<path d="M4.37395 45.533C7.43622 44.155 8.96735 41.0417 8.96735 36.1931V25.0158C8.96735 22.8212 9.55429 20.9072 10.7282 19.274C11.902 17.6408 13.0759 16.8242 14.2498 16.8242H19.915V22.4894H17.3886C16.1126 22.4894 15.4747 23.7654 15.4747 26.3172V37.1883C15.4747 42.0369 13.918 45.584 10.8047 47.8297C11.9786 48.4421 13.0504 49.7181 14.0201 51.6575C14.9898 53.597 15.4747 55.8171 15.4747 58.318V69.2656C15.4747 71.8175 16.1126 73.0934 17.3886 73.0934H19.915V78.682H14.2498C13.0759 78.682 11.902 77.8654 10.7282 76.2322C9.55429 74.599 8.96735 72.7106 8.96735 70.567V59.3132C8.96735 54.4646 7.43622 51.3768 4.37395 50.0498V45.533ZM68.565 43.7722V44.9205C68.565 52.321 66.6766 58.318 62.8998 62.9114C59.123 67.4537 53.9426 69.7249 47.3588 69.7249C40.979 69.7249 35.6966 67.3772 31.5115 62.6817C27.3264 57.9862 25.2339 52.2445 25.2339 45.4564C25.2339 38.4132 27.3519 32.5439 31.5881 27.8484C35.8752 23.1529 41.3363 20.8052 47.9712 20.8052C56.5456 20.8052 62.6701 24.5054 66.3448 31.9059L59.3016 35.6572C56.9539 30.2982 53.1005 27.6187 47.7415 27.6187C43.6075 27.6187 40.1879 29.405 37.4829 32.9777C34.7779 36.4993 33.4254 40.6844 33.4254 45.533C33.4254 50.3816 34.7524 54.4901 37.4064 57.8586C40.0603 61.2271 43.5054 62.9114 47.7415 62.9114C51.3652 62.9114 54.2489 61.6354 56.3924 59.0835C58.536 56.5316 59.6078 53.4949 59.6078 49.9733H48.5071V43.7722H68.565ZM102.688 61.8396V68.5H71.4532L83.2429 53.5714C88.8571 46.6303 92.149 42.2921 93.1187 40.5568C94.1395 38.7705 94.6499 37.3159 94.6499 36.1931C94.7009 35.8868 94.7264 35.5806 94.7264 35.2744C94.7264 33.2329 94.0374 31.421 92.6594 29.8389C91.3324 28.2567 89.5716 27.4656 87.377 27.4656C85.1824 27.4656 83.4471 28.3588 82.1711 30.1451C80.9462 31.9314 80.3338 34.1005 80.3338 36.6524H72.0656C72.0656 32.059 73.4181 28.2822 76.1231 25.322C78.8792 22.3108 82.6049 20.8052 87.3004 20.8052C91.5366 20.8052 95.1092 22.2342 98.0184 25.0923C100.928 27.9505 102.382 31.5231 102.382 35.8103C102.382 39.8423 99.2943 45.4564 93.1187 52.6528L85.2334 61.8396H102.688ZM125.031 50.0498C121.969 51.3768 120.438 54.4646 120.438 59.3132V70.567C120.438 72.8127 119.825 74.7266 118.6 76.3088C117.426 77.891 116.303 78.682 115.232 78.682H109.566V73.0934H112.016C113.292 73.0934 113.93 71.8175 113.93 69.2656V58.318C113.93 53.0611 115.487 49.565 118.6 47.8297C115.487 45.533 113.93 41.9859 113.93 37.1883V26.3172C113.93 23.7654 113.292 22.4894 112.016 22.4894H109.566V16.8242H115.232C116.303 16.8242 117.426 17.6153 118.6 19.1975C119.825 20.7796 120.438 22.7191 120.438 25.0158V36.1931C120.438 41.0417 121.969 44.155 125.031 45.533V50.0498Z" fill="url(#paint0_linear_34_355)"/>
<defs>
<linearGradient id="paint0_linear_34_355" x1="135.322" y1="43.2425" x2="0.163331" y2="43.2425" gradientUnits="userSpaceOnUse">
<stop stop-color="#B861E0"/>
<stop offset="0.489583" stop-color="#7171E2"/>
<stop offset="1" stop-color="#1FC1AE"/>
</linearGradient>
</defs>
</svg>
