<svg width="76" height="141" viewBox="0 0 76 141" fill="none" xmlns="http://www.w3.org/2000/svg">
<g clip-path="url(#clip0_34_29)">
<path d="M72.7984 111.184H72.2661V110.887H73.6997V111.184H73.1706V112.667H72.7984V111.184ZM75.6578 111.261H75.6495L75.1216 112.667H74.8801L74.3559 111.261H74.3496V112.667H73.9987V110.887H74.5151L75.0011 112.148L75.4856 110.887H76.0001V112.667H75.6576L75.6578 111.261Z" fill="#E76F00"/>
<path d="M25.1272 74.7933C25.1272 74.7933 21.4222 76.9422 27.764 77.6694C35.4468 78.5436 39.3735 78.4182 47.84 76.82C47.84 76.82 50.066 78.2121 53.1747 79.4178C34.1948 87.531 10.2196 78.9479 25.1272 74.7933ZM22.808 64.2061C22.808 64.2061 18.6525 67.2741 24.9989 67.9288C33.206 68.7733 39.6873 68.8423 50.9025 66.6884C50.9025 66.6884 52.4539 68.2569 54.8931 69.1147C31.9451 75.8074 6.38549 69.6425 22.808 64.2061Z" fill="#5382A1"/>
<path d="M42.3597 46.2467C47.0364 51.6169 41.1313 56.4497 41.1313 56.4497C41.1313 56.4497 53.0055 50.3356 47.5522 42.6793C42.4588 35.5391 38.5528 31.9918 59.6982 19.7602C59.6985 19.76 26.5069 28.028 42.3597 46.2467Z" fill="#E76F00"/>
<path d="M67.4623 82.6242C67.4623 82.6242 70.2041 84.8777 64.4427 86.6206C53.4873 89.9307 18.8452 90.9302 9.22172 86.7527C5.76234 85.2514 12.2497 83.1684 14.2903 82.7313C16.4185 82.271 17.6347 82.3568 17.6347 82.3568C13.7875 79.6537 -7.2319 87.6642 6.95789 89.9586C45.6555 96.2178 77.5002 87.14 67.4623 82.6242ZM26.909 53.2365C26.909 53.2365 9.28783 57.4109 20.6689 58.9268C25.4744 59.5685 35.0539 59.4233 43.9767 58.6776C51.2692 58.0641 58.592 56.7599 58.592 56.7599C58.592 56.7599 56.0206 57.8582 54.1602 59.1249C36.2662 63.819 1.69826 61.6351 11.6499 56.8339C20.0661 52.7762 26.909 53.2365 26.909 53.2365ZM58.5193 70.8594C76.7094 61.4318 68.2993 52.3717 62.4287 53.5926C60.9899 53.8913 60.3483 54.1501 60.3483 54.1501C60.3483 54.1501 60.8827 53.3155 61.9024 52.9543C73.5158 48.882 82.4473 64.9648 58.1535 71.3348C58.1535 71.3348 58.4354 71.0841 58.5193 70.8594Z" fill="#5382A1"/>
<path d="M47.5522 0.00919724C47.5522 0.00919724 57.6261 10.06 37.9975 25.5159C22.2572 37.9138 34.4082 44.9828 37.9909 53.0598C28.8034 44.7915 22.0607 37.5134 26.5842 30.7394C33.2234 20.7957 51.6168 15.9747 47.5522 0.00919724Z" fill="#E76F00"/>
<path d="M28.6961 96.406C46.1564 97.5208 72.9685 95.7875 73.6033 87.5477C73.6033 87.5477 72.3829 90.6712 59.1733 93.1522C44.2709 95.9491 25.8903 95.6228 14.9888 93.8301C14.9893 93.8296 17.2207 95.6721 28.6961 96.406Z" fill="#5382A1"/>
<path d="M25.8348 127.892C24.1877 129.317 22.4481 130.117 20.8869 130.117C18.6586 130.117 17.4547 128.784 17.4547 126.647C17.4547 124.335 18.7449 122.644 23.9196 122.644H25.8345L25.8348 127.892ZM30.3797 133.007V117.175C30.3797 113.13 28.067 110.462 22.4909 110.462C19.2356 110.462 16.3841 111.264 14.0664 112.286L14.7354 115.088C16.5602 114.42 18.9223 113.799 21.2408 113.799C24.4529 113.799 25.8348 115.088 25.8348 117.755V119.756H24.2316C16.4272 119.756 12.9067 122.778 12.9067 127.313C12.9067 131.227 15.2267 133.452 19.595 133.452C22.4029 133.452 24.4989 132.296 26.4583 130.604L26.814 133.007L30.3797 133.007ZM45.5476 133.007H39.8793L33.0572 110.863H38.0077L42.2406 124.468L43.1816 128.56C45.3232 122.644 46.838 116.642 47.5956 110.863H52.411C51.1206 118.154 48.799 126.158 45.5476 133.007ZM67.2933 127.892C65.643 129.317 63.9005 130.117 62.3391 130.117C60.1148 130.117 58.9077 128.784 58.9077 126.647C58.9077 124.335 60.2005 122.644 65.3749 122.644H67.2933V127.892ZM71.8377 133.007V117.175C71.8377 113.13 69.5195 110.462 63.9494 110.462C60.692 110.462 57.8394 111.264 55.5228 112.286L56.191 115.088C58.0163 114.42 60.3829 113.799 62.6995 113.799C65.9093 113.799 67.2933 115.088 67.2933 117.755V119.756H65.6872C57.8807 119.756 54.3615 122.778 54.3615 127.313C54.3615 131.227 56.6797 133.452 61.0472 133.452C63.8569 133.452 65.9522 132.296 67.9147 130.604L68.2717 133.007L71.8377 133.007ZM7.92328 136.767C6.62765 138.654 4.53498 140.146 2.24397 140.991L0 138.357C1.7438 137.465 3.23935 136.023 3.9342 134.681C4.53524 133.487 4.78402 131.948 4.78402 128.268V102.987H9.61273V127.922C9.61247 132.841 9.21813 134.829 7.92328 136.767Z" fill="#E76F00"/>
</g>
<defs>
<clipPath id="clip0_34_29">
<rect width="76" height="141" fill="white"/>
</clipPath>
</defs>
</svg>
