<svg width="92" height="130" viewBox="0 0 92 130" fill="none" xmlns="http://www.w3.org/2000/svg">
<path d="M91.9106 25.5077L83.5418 119.259L45.924 129.688L8.40969 119.274L0.0498047 25.5077H91.9106Z" fill="#264DE4"/>
<path d="M76.3773 113.289L83.5289 33.1744H45.9802V121.716L76.3773 113.289Z" fill="#2965F1"/>
<path d="M19.2148 67.9509L20.2456 79.4508H45.9804V67.9509H19.2148Z" fill="#EBEBEB"/>
<path d="M45.9801 44.6746H45.9404H17.1436L18.1889 56.1747H45.9801V44.6746Z" fill="#EBEBEB"/>
<path d="M45.9803 109.782V97.8176L45.9299 97.831L33.1222 94.3727L32.3035 85.2009H26.08H20.7593L22.3704 103.258L45.9273 109.797L45.9803 109.782Z" fill="#EBEBEB"/>
<path d="M21.6685 0.026123H35.597V5.85077H27.4931V11.6754H35.597V17.5001H21.6685V0.026123Z" fill="black"/>
<path d="M38.3828 0.026123H52.3113V5.09103H44.2075V6.10402H52.3113V17.7533H38.3828V12.4352H46.4867V11.4222H38.3828V0.026123Z" fill="black"/>
<path d="M55.0969 0.026123H69.0254V5.09103H60.9216V6.10402H69.0254V17.7533H55.0969V12.4352H63.2008V11.4222H55.0969V0.026123Z" fill="black"/>
<path d="M60.1017 79.4508L58.7668 94.3654L45.9407 97.8273V109.792L69.5163 103.258L69.6893 101.315L72.3917 71.039L72.6723 67.9509L74.7484 44.6746H45.9407V56.1747H62.1453L61.0989 67.9509H45.9407V79.4508H60.1017Z" fill="white"/>
</svg>
