<?xml version="1.0" standalone="no"?>
<!DOCTYPE svg PUBLIC "-//W3C//DTD SVG 20010904//EN"
 "http://www.w3.org/TR/2001/REC-SVG-20010904/DTD/svg10.dtd">
<svg version="1.0" xmlns="http://www.w3.org/2000/svg"
 width="256.000000pt" height="256.000000pt" viewBox="0 0 256.000000 256.000000"
 preserveAspectRatio="xMidYMid meet">
<metadata>
Created by potrace 1.14, written by Peter Selinger 2001-2017
</metadata>
<g transform="translate(0.000000,256.000000) scale(0.100000,-0.100000)"
fill="#000000" stroke="none">
<path d="M845 2443 c-53 -28 -98 -84 -130 -163 -16 -39 -18 -81 -21 -343 -2
-303 -8 -366 -44 -437 -22 -43 -65 -92 -102 -115 -27 -17 -28 -21 -28 -99 l0
-82 45 -32 c69 -48 105 -117 121 -227 4 -27 8 -171 9 -320 1 -292 5 -320 56
-399 60 -96 97 -112 246 -111 l108 1 2 107 2 107 -64 0 c-102 0 -99 -10 -106
370 -5 290 -7 320 -27 374 -29 79 -64 137 -107 177 l-34 33 44 47 c24 25 55
69 69 97 47 94 55 152 56 446 1 271 7 333 35 356 9 7 39 14 68 15 29 2 55 3
59 4 3 1 7 48 7 104 l1 104 -117 1 c-89 0 -125 -3 -148 -15z"/>
<path d="M1434 2446 c-3 -7 -3 -55 -2 -107 l3 -94 45 -1 c113 -2 114 -7 116
-349 1 -257 7 -361 24 -395 4 -8 18 -38 30 -67 13 -29 44 -74 70 -100 l48 -49
-40 -33 c-64 -54 -107 -139 -124 -246 -4 -22 -7 -172 -8 -333 l-2 -292 -25
-26 c-21 -21 -36 -26 -83 -26 l-57 -1 3 -106 3 -106 121 1 c117 0 123 1 158
27 46 35 89 99 111 162 14 42 17 98 19 350 2 309 7 351 47 425 25 46 46 71 90
100 l35 25 0 82 c-1 81 -1 82 -35 105 -50 34 -88 86 -113 153 -20 56 -21 81
-23 345 -1 157 -6 305 -10 330 -11 67 -52 144 -103 192 l-45 42 -124 3 c-93 2
-125 -1 -129 -11z"/>
</g>
</svg>
